<svg width="206" height="32" viewBox="0 0 206 32" fill="none" xmlns="http://www.w3.org/2000/svg">
<g id="Vector">
<path d="M19.2749 0.0446313C22.8545 -0.192689 26.5029 0.519264 29.7039 2.1127C34.4538 4.4181 38.2399 8.55426 39.9953 13.4363C40.787 15.6061 41.2 17.8776 41.2 20.183V28.6926C41.2 29.0316 41.2 29.4045 41.1312 29.7436C40.9246 30.5911 40.3051 31.3709 39.479 31.7439C38.8939 32.0151 38.2399 32.049 37.6548 31.9473C36.3469 31.7099 35.3143 30.4894 35.3143 29.1672C35.3143 26.5228 35.3143 23.8784 35.3143 21.2339C35.3487 20.4881 35.3487 19.6744 34.9357 19.0303C34.2817 17.8098 32.6296 17.2334 31.3561 17.7419C30.2546 18.1149 29.463 19.2337 29.4286 20.3864C29.4286 23.0647 29.4286 25.743 29.4286 28.4214C29.4286 28.9299 29.463 29.4384 29.2909 29.9131C29.0155 30.8624 28.2239 31.6082 27.2601 31.8795C25.9866 32.2185 24.541 31.676 23.9215 30.5233C23.474 29.8453 23.5084 28.9977 23.5429 28.2179C23.5429 25.5396 23.5429 22.8952 23.5429 20.2169C23.5084 18.8607 22.3726 17.6402 21.0302 17.4707C20.1353 17.3351 19.206 17.6402 18.552 18.2505C17.9669 18.7929 17.6571 19.5727 17.6571 20.3525V28.1162C17.6571 28.7604 17.726 29.4385 17.485 30.0487C17.1064 31.1675 15.9706 31.9812 14.7659 31.9473C13.5268 32.0151 12.3221 31.1675 11.9435 30.0487C11.737 29.4724 11.7714 28.896 11.7714 28.2858C11.7714 25.6074 11.7714 22.9291 11.7714 20.2508C11.7714 18.9285 10.7044 17.708 9.39649 17.4707C8.19181 17.2334 6.88388 17.8097 6.26433 18.8946C6.02339 19.3354 5.88571 19.8439 5.88571 20.3525V29.0655C5.88571 29.9131 5.5071 30.7607 4.85313 31.3031C3.85497 32.1507 2.23726 32.2185 1.20468 31.4387C0.447452 30.9302 0 30.0487 0 29.1333V20.3186C0 16.9961 0.860485 13.6736 2.4782 10.724C3.78613 8.31694 5.61036 6.18105 7.77878 4.4859C10.9798 1.84148 15.0757 0.281952 19.2749 0.0446313Z" fill="white"/>
<path d="M99.52 10.1831H95.0547C95.2264 7.11966 95.879 4.3592 98.7299 2.60867C101.581 0.8918 104.707 0.487831 107.97 0.757143C109.721 0.8918 111.473 1.26211 113.088 2.00272C115.938 3.28195 117.347 5.47012 117.347 8.53355C117.347 13.9535 117.347 19.3734 117.347 24.7933C117.347 26.7795 117.759 27.1498 119.786 26.9478C119.992 26.9142 120.232 26.8805 120.438 26.8468C120.472 26.9478 120.472 27.0488 120.472 27.1161V30.4152C118.858 30.9538 117.209 31.1222 115.595 30.6845C114.393 30.3479 113.637 29.5063 113.225 28.3954C113.019 27.8231 112.881 27.2171 112.71 26.5775C112.538 26.7795 112.401 26.9478 112.229 27.1161C108.691 30.6172 104.5 32.0984 99.5543 30.8529C96.0508 29.9776 93.6464 26.8468 93.5433 23.2784C93.509 22.1339 93.612 20.9893 93.8868 19.8784C94.5394 17.3199 96.3943 15.7713 98.7299 14.7277C100.379 13.9871 102.165 13.7851 103.951 13.5495C106.046 13.2802 108.107 13.0445 110.202 12.7416C111.611 12.5396 112.332 11.799 112.538 10.4187C112.985 7.62462 111.714 5.7731 108.966 5.09982C107.317 4.69585 105.634 4.62852 103.951 4.9315C101.478 5.36913 100.104 6.74936 99.623 9.13951C99.6573 9.47615 99.5887 9.81279 99.52 10.1831ZM112.675 15.5693C110.614 16.6466 108.622 16.9159 106.596 17.2189C104.913 17.4882 103.195 17.7239 101.547 18.2288C99.3826 18.9358 98.3865 20.6863 98.5926 23.0428C98.7643 24.9953 100.104 26.5775 102.268 26.9142C105.6 27.4528 108.554 26.5438 110.889 24.12C111.576 23.4131 112.126 22.4032 112.263 21.4606C112.572 19.5754 112.538 17.6565 112.675 15.5693ZM176.323 21.2249C176.22 21.6962 176.151 22.1002 176.048 22.4705C174.125 28.227 170.209 30.6845 165.469 31.2232C157.26 32.0984 152.554 26.8468 151.352 21.2586C150.39 16.8149 150.527 12.4049 152.52 8.23058C154.409 4.29188 157.431 1.69974 161.931 0.925464C167.324 -0.0171308 174.949 2.60867 176.22 10.8564C176.563 12.9772 176.632 15.1654 176.838 17.3872H155.954C156.126 20.417 156.607 23.2448 158.874 25.4329C159.801 26.3419 161.004 26.7795 162.309 27.0151C166.534 27.7557 170.037 25.7696 171.411 21.7635C171.549 21.3259 171.755 21.1913 172.201 21.2249C173.541 21.2249 174.88 21.2249 176.323 21.2249ZM156.126 13.4822H171.755C171.583 11.698 171.274 10.0484 170.415 8.49988C169.591 7.01866 168.388 5.94142 166.74 5.40279C161.347 3.58493 155.783 7.79294 156.126 13.4822ZM187.555 30.2469H182.815V1.3631H187.314V5.40279C187.658 5.03249 187.864 4.79684 188.07 4.56119C191.299 0.959135 195.352 0.0165353 199.955 1.12745C203.149 1.90172 204.935 4.12356 205.553 7.22065C205.794 8.49989 205.966 9.81279 205.966 11.092C206 17.2862 206 23.4804 206 29.6746C206 29.8429 205.966 30.0112 205.966 30.2132H201.123V29.439C201.123 23.6487 201.157 17.8585 201.088 12.0683C201.088 10.789 200.882 9.47615 200.504 8.23058C199.886 6.21073 198.237 5.13348 196.073 5.03249C192.123 4.89783 188.998 6.95134 188.036 10.3851C187.692 11.6306 187.589 12.9435 187.589 14.2564C187.555 19.3397 187.555 24.3893 187.555 29.4053V30.2469ZM125.075 1.3631H129.644V13.6168C129.918 13.3475 130.09 13.2129 130.262 13.0445C134.006 9.30782 137.75 5.53745 141.494 1.80073C141.803 1.46409 142.112 1.32944 142.593 1.32944C144.345 1.3631 146.131 1.32944 148.054 1.32944C147.779 1.59875 147.642 1.76707 147.47 1.93539C144.173 5.16714 140.91 8.43256 137.578 11.6307C137.2 12.001 137.2 12.2366 137.441 12.6406C141.047 18.2625 144.619 23.8844 148.192 29.5063C148.329 29.7083 148.432 29.9102 148.604 30.2132C148.363 30.2469 148.192 30.2469 147.986 30.2469C146.337 30.2469 144.722 30.2469 143.074 30.2469C142.627 30.2469 142.421 30.0786 142.181 29.7419C139.433 25.2309 136.685 20.72 133.937 16.1753C133.8 15.9733 133.697 15.7713 133.525 15.5357C132.254 16.7813 131.017 17.9595 129.781 19.2051C129.609 19.3734 129.575 19.6764 129.575 19.912C129.575 23.0764 129.575 26.2409 129.575 29.4053V30.2132C128.682 30.2132 127.789 30.2132 126.93 30.2132C126.312 30.2132 125.453 30.3815 125.11 30.0449C124.8 29.7756 124.972 28.9003 124.972 28.2944V2.13737C125.075 1.96905 125.075 1.69974 125.075 1.3631ZM72.3504 1.32944C68.6408 4.93149 65.0342 8.46623 61.3932 12.001C65.309 18.1278 69.1216 24.12 73.003 30.2469C72.6939 30.2469 72.4878 30.2806 72.2817 30.2806C70.7017 30.2806 69.0873 30.2806 67.5073 30.2806C67.0607 30.2806 66.7859 30.1122 66.5455 29.7419C63.7976 25.2309 61.0498 20.72 58.3019 16.1753C58.1988 15.9733 58.0614 15.805 57.8897 15.5357C57.2027 16.2426 56.5845 17.0169 55.8288 17.5555C54.2831 18.7001 53.8366 20.114 53.9396 21.9992C54.1114 24.4567 53.974 26.9478 53.974 29.4053V30.2132H49.44V1.3631H53.974V13.4148C54.077 13.4822 54.1801 13.5495 54.2488 13.6168C54.3862 13.4148 54.4549 13.1792 54.5923 13.0109C58.3019 9.27417 62.0459 5.57111 65.7555 1.80073C66.099 1.46409 66.4081 1.29577 66.9233 1.32944C68.469 1.3631 70.0147 1.32944 71.5604 1.32944C71.8008 1.32944 72.0069 1.32944 72.3504 1.32944ZM81.4184 6.1434C83.7197 2.84432 86.1584 0.0838698 90.6924 0.891808V5.84042C89.4902 5.90775 88.288 5.87409 87.1545 6.10974C84.3723 6.68203 82.2084 9.17317 81.7618 12.2029C81.6931 12.8089 81.6245 13.4149 81.6245 14.0208C81.6245 19.1714 81.6245 24.322 81.6245 29.4726V30.2806H76.9531V1.43043H81.4184C81.4184 2.94531 81.4184 4.46019 81.4184 6.1434Z" fill="white"/>
</g>
</svg>
