<svg width="194" height="29" viewBox="0 0 194 29" fill="none" xmlns="http://www.w3.org/2000/svg">
<g id="Vector">
<path d="M175.617 16.7622C175.649 16.7622 175.714 16.7945 175.811 16.7945C175.908 16.7945 175.908 16.8592 175.908 16.8592L175.94 16.9885C175.94 16.9885 176.07 17.0209 176.102 17.0855C176.167 17.1502 176.07 17.1502 176.037 17.1502C176.005 17.1826 175.908 17.1502 175.908 17.1502L175.973 17.2796L175.843 17.3442L175.649 17.2796L175.714 17.3766L175.649 17.4412C175.649 17.4412 175.358 17.3442 175.358 17.3119C175.358 17.2796 175.294 17.2472 175.294 17.2472L175.067 17.2796L175.1 17.1826L175.326 17.1179C175.326 17.1179 175.488 17.0532 175.52 17.0532C175.552 17.0532 175.358 16.9885 175.358 16.9562C175.358 16.9239 175.294 16.8915 175.294 16.8915C175.294 16.8915 175.261 16.8915 175.229 16.8915C175.164 16.9239 175.1 16.9562 175.035 16.9885L175.1 17.0209L174.97 17.1502C174.97 17.1502 174.938 17.1826 174.873 17.2149C174.776 17.2472 174.712 17.2149 174.647 17.2472C174.647 17.2472 174.647 17.2472 174.615 17.2472C174.582 17.2796 174.55 17.2796 174.485 17.3119L174.55 17.2796H174.647L174.712 17.3442L174.776 17.3766C174.776 17.3766 174.744 17.4089 174.679 17.4089C174.615 17.4089 174.55 17.4089 174.518 17.4089L174.388 17.4412L174.421 17.3766C174.421 17.3766 174.388 17.3766 174.356 17.3766C174.097 17.5382 173.838 17.7323 173.58 17.9263C173.58 17.9586 173.58 17.991 173.58 17.991H173.709L173.903 18.0556L173.968 18.088H174.13L174.097 18.1526L174.065 18.2496V18.3466L174.13 18.379L174.259 18.282V18.1526C174.259 18.1526 174.388 18.1203 174.453 18.088C174.518 18.0556 174.615 17.9586 174.615 17.9586C174.615 17.9263 174.582 17.8616 174.582 17.8616C174.582 17.8616 174.679 17.7969 174.712 17.7646C174.744 17.7323 174.744 17.6353 174.744 17.6353C174.744 17.6353 174.712 17.5706 174.809 17.5382C174.906 17.5382 175.003 17.5382 175.035 17.5382C175.067 17.5382 175.1 17.5059 175.164 17.5382C175.197 17.5382 175.229 17.5706 175.229 17.6029H175.326L175.261 17.6999L175.164 17.7646L175.261 17.7969L175.326 17.8293L175.488 17.7323L175.552 17.6676V17.6999C175.908 17.3119 176.296 16.9562 176.749 16.6652L176.652 16.5035H176.328C176.199 16.5358 175.908 16.6328 175.617 16.7622ZM173.547 19.058L173.612 19.0904L173.838 19.058L174.033 18.9934L174.097 18.8964L173.936 18.9287L173.871 18.9934H173.838L173.612 19.0257L173.547 19.058ZM173.612 18.573L173.515 18.5407C173.515 18.5407 173.418 18.5407 173.418 18.573C173.386 18.6053 173.353 18.6053 173.321 18.6377C173.289 18.6377 173.159 18.7023 173.159 18.7023L173.192 18.7347L173.321 18.7023L173.483 18.67L173.547 18.7347L173.677 18.7023L173.774 18.67L173.741 18.6053L173.612 18.573ZM173.612 18.767H173.515L173.353 18.864L173.256 19.058H173.353L173.418 18.9287L173.547 18.7994H173.644L173.515 18.8964H173.612L173.677 18.864V18.9287L173.774 18.8964L173.838 18.767L173.774 18.7347L173.612 18.767ZM175.197 18.3466C175.132 18.3466 175.132 18.3467 175.1 18.379C175.067 18.4113 175.035 18.4437 175.035 18.4437L174.938 18.5083H174.97L175.164 18.476C175.164 18.4437 175.164 18.379 175.197 18.3466ZM174.518 25.8486C174.518 25.7839 174.485 25.6869 174.453 25.6546C174.421 25.6223 174.421 25.5899 174.388 25.5576L174.356 25.4929C174.356 25.4929 174.356 25.5252 174.324 25.4929C174.291 25.4606 174.227 25.3959 174.227 25.3959V25.3312L174.194 25.1696V24.8462L174.097 24.6522V24.4582L174.162 24.3288L174.13 24.2965V24.1995C174.13 24.1995 174.13 24.1348 174.13 24.1025C174.13 24.1025 174.13 24.0701 174.13 24.0378C173.547 23.9731 172.965 23.9085 172.351 23.8114C172.868 24.5552 173.58 25.2666 174.518 25.8486ZM171.769 21.5803C171.769 22.2916 171.963 22.9384 172.286 23.5528C172.868 23.6498 173.483 23.7144 174.13 23.8114V23.6821C174.13 23.6821 174.097 23.6498 174.065 23.6174C174.032 23.5851 174.065 23.6174 174.033 23.5851C174 23.5528 173.871 23.4881 173.871 23.4881C173.871 23.4881 173.741 23.4234 173.709 23.3911C173.677 23.3587 173.612 23.3587 173.58 23.3264C173.547 23.2941 173.547 23.2617 173.547 23.2617C173.547 23.2617 173.386 23.003 173.353 22.9707C173.321 22.9384 173.289 22.906 173.289 22.8737C173.289 22.8414 173.192 22.7767 173.192 22.7444L173.095 22.6797C173.095 22.6797 173.062 22.615 173.062 22.5827C173.062 22.5503 173.095 22.518 173.127 22.4857C173.127 22.4533 173.127 22.421 173.127 22.421C173.127 22.3887 173.127 22.3887 173.127 22.3563C173.127 22.324 173.127 22.324 173.127 22.2916C173.127 22.2593 173.289 22.13 173.289 22.13C173.289 22.0976 173.353 22.0653 173.386 22.033C173.418 22.0006 173.45 21.9359 173.45 21.9359C173.45 21.9036 173.483 21.8066 173.45 21.7743C173.418 21.7419 173.353 21.6126 173.353 21.6126L173.289 21.5479H173.224L173.192 21.5803V21.6126L173.159 21.6449H173.095L172.965 21.5803L172.901 21.5156L172.739 21.4832L172.707 21.3862L172.577 21.2569H172.448L172.351 21.2246H172.286L172.222 21.1599L172.092 21.0629H171.995C171.995 21.0629 171.931 21.0952 171.898 21.0952H171.834C171.769 21.2246 171.769 21.3862 171.769 21.5803ZM174.518 19.058C174.615 19.058 174.712 19.058 174.841 19.058C174.873 18.961 174.938 18.864 174.97 18.767L174.647 18.9287C174.647 18.8964 174.518 19.058 174.518 19.058ZM180.823 17.2796C180.888 17.2796 180.888 17.2796 180.888 17.2796V17.2149H180.985V17.1826L181.082 17.1502C181.049 17.1179 181.049 17.0855 181.017 17.0532L180.92 17.1179C180.92 17.1179 180.791 17.0855 180.758 17.0855L180.661 17.1179L180.694 17.1826C180.726 17.2149 180.791 17.2796 180.823 17.2796ZM181.567 19.058C181.47 19.0257 181.373 19.0257 181.276 19.0257L181.405 19.058H181.567ZM180.823 19.0257C180.823 19.0257 180.855 19.0257 180.888 19.0257C180.823 19.0257 180.758 19.0257 180.694 19.0257V19.058H180.823M181.308 20.0605C181.243 20.0281 181.243 20.0928 181.243 20.0928L181.405 20.3515L181.437 20.4485L181.534 20.5778C181.534 20.5778 181.567 20.6425 181.567 20.6748C181.567 20.7072 181.631 20.8042 181.631 20.8042C181.631 20.8042 181.631 20.8689 181.664 20.9012C181.696 20.9335 181.825 21.1276 181.858 21.1599C181.89 21.1922 181.922 21.1922 182.02 21.2246C182.117 21.2892 182.117 21.3216 182.117 21.3216V21.3539L182.214 21.4186C182.214 21.3539 182.214 21.3216 182.214 21.2569H182.181C182.117 21.2569 182.117 21.2246 182.117 21.1922C182.117 21.1599 182.052 21.0952 182.052 21.0305C182.052 20.9659 181.987 20.8689 181.987 20.8689C181.987 20.8689 181.922 20.8365 181.922 20.7719C181.922 20.7395 181.858 20.7072 181.825 20.6748C181.793 20.6425 181.761 20.6425 181.761 20.5778C181.761 20.5132 181.728 20.4808 181.696 20.4162C181.664 20.3515 181.599 20.3515 181.599 20.3515C181.599 20.3515 181.599 20.3191 181.567 20.2868C181.502 20.1898 181.47 20.1251 181.405 20.0281C181.34 20.0605 181.308 20.0605 181.308 20.0605ZM182.44 19.1551L182.472 19.1227L182.44 19.0904C182.311 19.0904 182.214 19.0904 182.084 19.058L182.117 19.1227L182.181 19.1551L182.117 19.1874V19.3167L182.149 19.4137C182.149 19.4137 182.181 19.4137 182.214 19.4137L182.246 19.4461C182.246 19.4461 182.311 19.4784 182.343 19.4784C182.375 19.4784 182.375 19.4784 182.375 19.4784C182.408 19.4784 182.505 19.4461 182.505 19.4461L182.472 19.3814V19.2844L182.44 19.2521V19.1874H182.408V19.1227C182.343 19.1227 182.44 19.1551 182.44 19.1551ZM187.032 19.7371C187.064 19.7371 187.096 19.7694 187.096 19.7694C187.096 19.7694 187.129 19.8341 187.161 19.8341C187.193 19.8341 187.226 19.8988 187.226 19.8988L187.258 19.9311H187.161H187.193L187.226 19.9958V20.0281H187.258C187.258 20.0281 187.258 20.0605 187.226 20.1251C187.193 20.1898 187.226 20.2868 187.161 20.3838C187.258 20.7395 187.323 21.0952 187.323 21.4832L187.355 21.4509V21.4186L187.387 21.3862V21.4509L187.355 21.5156L187.29 21.5479V21.6126C187.29 21.6773 187.29 21.7419 187.29 21.8066H187.323L187.387 21.8389H187.323V21.8713H187.29C187.29 21.9036 187.29 21.936 187.29 21.9683V22.0006L187.355 22.033V22.0653H187.29L187.258 22.13V22.1946L187.226 22.227C187.193 22.3887 187.161 22.5503 187.129 22.6797C187.161 22.6797 187.193 22.6797 187.226 22.6797C187.29 22.6797 187.323 22.6797 187.355 22.6797C187.387 22.6797 187.484 22.6797 187.517 22.6797C187.549 22.6797 187.549 22.712 187.549 22.712L187.42 22.7444L187.129 22.7767H187.096C187.032 23.0354 186.935 23.2617 186.805 23.5204C187.064 23.4881 187.29 23.4234 187.517 23.3911L187.581 23.3587C187.581 23.3587 187.614 23.2941 187.678 23.2617C187.743 23.2294 187.775 23.1971 187.808 23.1647C187.84 23.1324 187.905 23.1324 187.937 23.1324C187.969 23.1324 187.969 23.1971 187.969 23.1971L188.066 23.1647C188.066 23.1647 188.034 23.1647 188.066 23.1324C188.099 23.1 188.163 23.003 188.163 23.003H188.293V22.9384L188.584 23.003L188.519 23.1L188.454 23.1647L188.519 23.2294C188.648 23.1971 188.745 23.1647 188.875 23.1324V23.0354L188.972 22.8737L189.004 22.906L189.069 23.0677C189.23 23.003 189.392 22.9707 189.521 22.9384C189.715 22.518 189.812 22.0653 189.812 21.6449C189.812 21.1599 189.715 20.6749 189.489 20.2545C189.004 20.0928 188.519 19.9635 188.034 19.8664V19.8988H188.002L187.969 19.8341C187.937 19.8341 187.937 19.8341 187.937 19.8341H187.84L187.775 19.8664L187.711 19.8341L187.743 19.8018C187.678 19.8018 187.614 19.7694 187.517 19.7694C187.517 19.7694 187.517 19.8018 187.484 19.8018C187.484 19.8341 187.355 19.8341 187.355 19.8341L187.323 19.8018C187.323 19.8018 187.323 19.7694 187.323 19.7371C187.193 19.7048 187.064 19.7048 186.967 19.6724L186.902 19.7371C186.967 19.7048 186.999 19.7048 187.032 19.7371ZM187.581 22.906L187.517 22.8737L187.581 22.8414L187.646 22.906H187.581ZM189.586 22.4857H189.715L189.845 22.421L189.812 22.4857L189.748 22.518L189.586 22.4857ZM188.422 22.1623L188.584 22.227V22.2593L188.681 22.3563L188.875 22.227L188.907 22.2593L189.101 22.2916L189.327 22.3887L189.424 22.4533V22.4857L189.586 22.518V22.5827L189.521 22.615H189.554L189.618 22.712L189.683 22.7444L189.715 22.809L189.651 22.7767L189.521 22.7444L189.457 22.615L189.36 22.5827L189.263 22.6473L189.295 22.6797L189.23 22.712L189.101 22.6797H189.004L188.907 22.6473L189.004 22.615L188.972 22.5503L188.907 22.4533L188.81 22.421L188.648 22.3563L188.584 22.3887V22.324L188.648 22.2593H188.584L188.519 22.1946H188.454V22.13L188.422 22.1623ZM187.646 22.2593L187.711 22.1946H187.743L187.678 22.2916L187.711 22.3887L187.775 22.421V22.4857L187.678 22.421L187.646 22.324L187.581 22.3563V22.5503H187.517V22.4533L187.452 22.3563L187.484 22.227L187.549 22.0976L187.678 22.0653L187.775 22.033H187.808L187.711 22.0976H187.581L187.549 22.1946L187.646 22.2593ZM187.517 21.2246H187.581V21.2569L187.549 21.2892L187.517 21.2569V21.2246ZM187.711 21.4186L187.646 21.4509V21.3216L187.743 21.3539L187.711 21.4186ZM187.743 21.4186V21.5156H187.711V21.4509L187.743 21.4186ZM187.84 22.8737L187.808 22.8414L187.969 22.7444L188.002 22.7767L187.84 22.8737ZM187.969 21.5479L188.002 21.5803V21.6449L187.969 21.6773L187.937 21.6449L187.905 21.6773L187.937 21.7096L187.905 21.7419H187.872L187.808 21.6773V21.6126H187.775H187.711L187.678 21.6773H187.646L187.678 21.6126H187.711V21.5803H187.775V21.6126L187.84 21.5803V21.5479L187.872 21.5156L187.84 21.4832L187.969 21.5479ZM187.872 21.4186L187.808 21.3862L187.84 21.3539L187.808 21.3216L187.84 21.2892L187.872 21.3216V21.3539L187.84 21.3862C187.872 21.3862 187.872 21.4186 187.872 21.4186ZM187.808 19.8341L187.872 19.8664L187.905 19.9311V20.0281H187.84V19.9311L187.775 19.8988L187.743 19.8664L187.808 19.8341ZM187.646 21.1599L187.711 21.1922L187.775 21.2569L187.743 21.2892H187.711L187.678 21.2246H187.614L187.646 21.1599ZM187.517 20.8365L187.581 20.9012L187.614 20.9659L187.581 21.0305L187.549 21.0629V21.1276L187.581 21.1599V21.2246L187.549 21.2569L187.517 21.1922H187.452L187.42 21.0952H187.452V20.9335L187.517 20.8365ZM187.387 20.4162H187.452V20.4485L187.42 20.5778L187.387 20.6102L187.323 20.5455V20.4808L187.387 20.4162ZM181.34 18.7994L181.243 18.7347C181.243 18.7347 181.373 18.6053 181.34 18.6053C181.308 18.6053 181.049 18.6377 181.049 18.6377L181.082 18.7347L180.985 18.767L180.952 18.7347V18.7023H180.791L180.758 18.767L180.661 18.864V18.9287C180.92 18.9287 181.211 18.9287 181.47 18.961C181.437 18.864 181.34 18.7994 181.34 18.7994ZM188.875 23.2941C188.875 23.2941 188.842 23.2941 188.81 23.2941C188.842 23.3264 188.875 23.2941 188.875 23.2941ZM175.067 16.5035C175.1 16.5035 175.132 16.5035 175.132 16.5035C175.132 16.5035 175.164 16.5035 175.164 16.4712C175.164 16.5035 175.1 16.5035 175.067 16.5035ZM175.358 16.5035L175.714 16.4712V16.5358C175.94 16.4388 176.167 16.3742 176.393 16.3095L176.587 16.2448C176.393 16.2771 176.199 16.3095 176.005 16.3418L175.843 16.4712L175.714 16.4065C175.649 16.4065 175.552 16.4388 175.488 16.4388L175.358 16.5035ZM170.767 18.3143C170.767 18.282 170.734 18.1203 170.734 18.1203L170.637 18.0556L170.508 17.991C170.476 17.991 170.379 17.991 170.379 17.991H170.314C168.859 18.7994 167.856 19.8341 167.598 20.9659C167.921 20.6425 168.503 20.3515 169.279 20.0928C169.602 19.4137 170.12 18.8317 170.767 18.3143ZM169.247 23.0354C168.471 22.7767 167.921 22.4857 167.598 22.1623C168.083 24.3935 171.349 26.269 175.746 26.948C172.545 26.3013 170.088 24.8139 169.247 23.0354ZM170.702 18.573L170.767 18.6053C170.767 18.6053 170.831 18.6053 170.831 18.573C170.799 18.573 170.767 18.5407 170.767 18.5407L170.799 18.5083C170.767 18.5083 170.734 18.5407 170.702 18.573ZM175.132 26.3983C175.132 26.3983 175.229 26.463 175.229 26.4953C175.229 26.5277 175.358 26.5923 175.358 26.5923C175.358 26.5923 175.229 26.5923 175.164 26.56C175.1 26.5277 174.841 26.366 174.809 26.366C174.776 26.3337 174.615 26.172 174.55 26.1073C174.518 26.075 174.518 26.075 174.518 26.0426C173.483 25.4282 172.674 24.6198 172.157 23.7144C171.09 23.5528 170.152 23.3264 169.408 23.1C170.411 25.0079 173.224 26.4953 176.813 27.0127C176.264 26.851 175.682 26.6247 175.132 26.3983ZM189.295 23.3587C189.295 23.3911 189.327 23.4234 189.36 23.4234C189.424 23.3264 189.489 23.1971 189.554 23.0677C189.457 23.1 189.36 23.1324 189.263 23.1647V23.1971C189.295 23.2617 189.263 23.2941 189.295 23.3587ZM170.734 18.67L170.67 18.6053C170.152 19.0257 169.764 19.4784 169.473 19.9958C169.764 19.8988 170.055 19.8341 170.379 19.7371C170.346 19.7371 170.346 19.7048 170.346 19.7048L170.314 19.5107V19.4137C170.314 19.4137 170.346 19.2197 170.443 19.1551C170.508 19.0904 170.67 18.9287 170.734 18.864C170.799 18.7994 170.799 18.7347 170.799 18.7347H170.831L170.734 18.67ZM170.799 19.9634C170.767 19.9311 170.734 19.9311 170.734 19.9311L170.67 19.9958C170.67 20.0281 170.734 20.1251 170.734 20.1251V20.1898L170.799 20.3191V20.4162L170.831 20.4485C170.831 20.4808 170.864 20.4808 170.864 20.5132L170.896 20.5455H170.831L170.702 20.4162L170.734 20.3515C170.734 20.3515 170.702 20.3191 170.702 20.2868C170.702 20.2868 170.67 20.2545 170.637 20.2221C170.605 20.1898 170.54 20.1898 170.54 20.1898L170.605 20.1575V20.1251L170.573 20.0928V20.0281L170.508 19.8988V19.8664C170.087 19.9635 169.699 20.0605 169.344 20.1898C169.117 20.6425 169.02 21.0952 169.02 21.5803C169.02 22.033 169.117 22.4857 169.311 22.906C170.055 23.1647 170.993 23.3587 172.06 23.5528C171.737 22.9384 171.607 22.2916 171.575 21.6126C171.575 21.4186 171.575 21.2246 171.607 20.9982C171.543 20.9659 171.543 20.9659 171.51 20.9659C171.478 20.9659 171.413 20.9335 171.413 20.9335L171.381 20.9012C171.349 20.9012 171.316 20.9012 171.284 20.8689L171.187 20.8365L171.122 20.7719V20.7395L171.187 20.6748L171.155 20.5778C171.155 20.5778 171.025 20.4808 171.025 20.4485C170.993 20.4162 170.993 20.4162 170.961 20.3838C170.961 20.3838 170.896 20.3515 170.896 20.3191C170.896 20.2868 170.896 20.3191 170.896 20.2868C170.896 20.2545 170.831 20.1898 170.831 20.1898C170.831 20.1898 170.767 20.0928 170.734 20.0605C170.799 20.0281 170.831 19.9958 170.799 19.9634ZM171.834 17.3119L172.092 17.2472C172.092 17.2472 172.383 17.1826 172.416 17.1826L172.448 17.2149L172.61 17.1826L172.674 17.1502H172.771C172.868 17.0856 172.998 17.0532 173.095 17.0209C173.062 17.0209 173.03 17.0532 172.965 17.0855C172.836 17.1179 172.998 17.0209 172.836 17.0209C172.804 17.0209 172.901 16.9562 172.998 16.9239C173.095 16.8915 173.062 16.8915 173.256 16.8592C173.45 16.8269 173.45 16.8915 173.45 16.8915H173.483C174.13 16.6328 174.809 16.4388 175.52 16.2771H175.552C175.552 16.2771 175.585 16.2771 175.617 16.2448C174.194 16.4712 172.901 16.8269 171.801 17.2796H171.834C171.769 17.3119 171.834 17.3119 171.834 17.3119ZM179.142 16.1155C179.142 16.1155 178.915 16.2771 178.883 16.2771C178.851 16.3095 178.818 16.4712 178.818 16.5035C178.818 16.5358 178.786 16.6328 178.786 16.6328C178.786 16.6328 178.56 16.7298 178.463 16.7622C178.366 16.7945 178.269 16.8915 178.139 16.9562C178.107 16.9885 178.074 16.9885 178.01 16.9885C177.686 17.4736 177.395 18.1203 177.201 18.8964C177.557 18.8964 177.913 18.864 178.236 18.864L178.204 18.767H178.269L178.301 18.7023H178.657C178.721 18.7023 178.721 18.67 178.721 18.67V18.5407L178.689 18.4437L178.624 18.379L178.495 18.3143V18.282H178.56L178.592 18.3143L178.689 18.282L178.657 18.2173H178.754L178.818 18.185L178.915 18.1203C178.915 18.1203 178.98 18.088 179.012 18.0233C179.045 17.9586 179.174 17.9586 179.174 17.9586L179.271 17.9263L179.206 17.7969L179.174 17.7646L179.303 17.6999L179.336 17.7969L179.303 17.8939H179.368V17.5706L179.239 17.6029C179.239 17.6029 179.142 17.6029 179.109 17.6029C179.077 17.6029 179.045 17.5382 179.045 17.5382C179.045 17.5382 179.045 17.4412 179.045 17.4089C179.012 17.3442 179.077 17.3442 179.109 17.3119C179.174 17.2796 179.174 17.2796 179.239 17.2472C179.303 17.2149 179.368 17.1502 179.368 17.1179L179.4 17.0855V15.9861C179.336 15.9861 179.303 15.9861 179.239 16.0185L179.142 16.1155ZM178.43 17.8939L178.398 17.9263L178.43 18.0233V18.0556H178.366L178.301 18.088H178.236L178.172 18.0556V18.0233L178.236 17.991V17.9586H178.204L178.236 17.8939H178.301V17.8293L178.366 17.7969L178.43 17.8293H178.463V17.8616C178.43 17.8293 178.43 17.8616 178.43 17.8939ZM178.883 18.088L178.818 18.1203L178.883 18.1526V18.185L178.721 18.2173H178.463L178.56 18.1203H178.624L178.657 18.088H178.527V18.0556L178.592 18.0233V17.991L178.56 17.9586L178.592 17.9263L178.657 17.9586L178.689 17.8939L178.657 17.8616V17.8293C178.657 17.8293 178.624 17.8616 178.592 17.8293C178.56 17.8293 178.56 17.7969 178.56 17.7969L178.592 17.7646C178.592 17.7646 178.592 17.7323 178.56 17.7323H178.495L178.527 17.6676L178.495 17.6353V17.5706L178.527 17.5382L178.56 17.5706L178.592 17.5059H178.689V17.5382L178.56 17.6029H178.657L178.721 17.6353L178.689 17.6999L178.624 17.7323V17.7646H178.689C178.689 17.7646 178.721 17.7646 178.721 17.7969C178.721 17.8293 178.721 17.8293 178.754 17.8616C178.786 17.8616 178.786 17.8939 178.786 17.9263L178.851 17.991V18.0556L178.883 18.088L178.915 18.0556L178.948 18.088H178.883ZM188.487 18.2173H188.551L188.681 18.282V18.3466L188.745 18.379V18.4113L188.713 18.4437L188.745 18.476L188.713 18.5083L188.778 18.573L188.745 18.6053C189.198 19.0257 189.586 19.4784 189.812 19.9634C190.589 20.2221 191.171 20.5132 191.494 20.8365C191.235 19.7371 190.298 18.767 188.907 17.9586C188.875 17.991 188.842 18.0233 188.842 18.0233V18.0556L188.778 18.0233C188.745 17.991 188.648 18.0233 188.648 18.0233V18.0556L188.584 18.0233L188.551 18.0556H188.487L188.519 18.1203C188.454 18.185 188.487 18.2173 188.487 18.2173ZM179.271 18.8317L179.142 18.7994L179.012 18.8317V18.864C179.142 18.864 179.271 18.864 179.433 18.864V18.767L179.368 18.7347L179.271 18.8317ZM176.296 24.1671C176.264 24.1671 176.199 24.1995 176.199 24.1995C176.167 24.2318 176.005 24.2965 176.005 24.3288C175.973 24.3612 176.037 24.4582 176.005 24.4905C176.005 24.5228 175.973 24.5552 175.94 24.5875L175.876 24.6198C175.876 24.6198 175.908 24.6198 175.843 24.6522C175.811 24.6845 175.779 24.6845 175.779 24.7169C175.779 24.7492 175.714 24.8462 175.714 24.8462C175.714 24.8462 175.714 24.8785 175.682 24.9109C175.649 24.9432 175.649 24.9755 175.617 25.0079C175.585 25.0079 175.552 25.0402 175.52 25.0079H175.488C176.037 25.7839 176.749 26.3983 177.589 26.7864C177.719 26.7217 177.848 26.7217 177.977 26.7217C178.042 26.7217 178.107 26.6894 178.172 26.6894C177.654 26.1396 177.234 25.2666 176.975 24.1995C176.781 24.1671 176.522 24.1671 176.296 24.1671ZM178.818 19.058L178.851 19.1551L178.689 19.3167H178.56L178.495 19.3814L178.43 19.3167L178.366 19.2521H178.301L178.236 19.2197V19.1551L178.204 19.0904L178.236 18.961C177.88 18.961 177.525 18.9934 177.169 18.9934C176.975 19.8341 176.878 20.6748 176.878 21.5156C176.878 21.936 176.91 22.324 176.943 22.712C176.975 22.7443 177.007 22.809 177.007 22.8414C177.007 22.8737 177.007 22.9384 176.975 22.9707C177.007 23.3264 177.072 23.6498 177.169 23.9731C177.913 24.0055 178.689 24.0378 179.465 24.0378V21.9359C179.433 21.9359 179.4 21.8066 179.336 21.7743C179.271 21.7419 179.077 21.8713 179.077 21.8713C179.077 21.8713 178.98 21.9359 178.883 21.9359C178.818 21.9359 178.786 21.9359 178.786 21.9359H178.624C178.624 21.9359 178.527 22.0006 178.495 22.0006C178.463 22.0006 178.398 21.9683 178.366 21.9036C178.366 21.8713 178.172 21.7419 178.172 21.7419C178.172 21.7419 178.075 21.6449 178.075 21.6126C178.075 21.5803 177.977 21.4832 177.945 21.4509C177.945 21.4186 177.848 21.3862 177.816 21.3539C177.783 21.2892 177.783 21.2892 177.783 21.2246C177.783 21.1599 177.719 21.0952 177.719 21.0952L177.783 20.9982C177.783 20.9982 177.816 20.8365 177.783 20.7719C177.783 20.7072 177.751 20.7072 177.751 20.6748C177.751 20.6425 177.686 20.6102 177.686 20.4808C177.686 20.3838 177.751 20.3191 177.751 20.3191C177.751 20.3191 177.816 20.1898 177.848 20.1575C177.88 20.1251 177.945 19.9634 177.977 19.9634C178.01 19.9634 178.139 19.9311 178.172 19.8018C178.172 19.7694 178.171 19.7371 178.204 19.7371V19.6078C178.236 19.5754 178.204 19.5754 178.236 19.5431C178.269 19.5107 178.301 19.4784 178.333 19.4784C178.366 19.4784 178.43 19.3814 178.43 19.3814V19.3167H178.495L178.56 19.3491H178.689L178.786 19.3167L178.851 19.2844C178.851 19.2844 178.915 19.2521 178.948 19.2197C178.98 19.2197 179.077 19.2844 179.206 19.2197C179.336 19.1874 179.303 19.2197 179.303 19.2197L179.4 19.2521V18.9287C179.206 18.9287 179.012 18.9287 178.851 18.9287L178.818 19.058ZM175.455 25.2342C175.455 25.2666 175.423 25.2989 175.391 25.3312C175.326 25.3312 175.261 25.3636 175.229 25.3636C175.197 25.3636 175.132 25.3636 175.132 25.3636C175.132 25.3636 175.132 25.4282 175.132 25.4606C175.132 25.4929 175.164 25.4929 175.164 25.5253C175.132 25.5576 175.1 25.5576 175.1 25.5576L175.003 25.5253C175.003 25.5253 174.97 25.5253 174.97 25.5576C174.97 25.5899 175.003 25.6223 175.003 25.6223L175.067 25.6546L175.003 25.7193L175.035 25.7839V25.8486L174.97 25.8809C174.97 25.9133 174.97 25.978 175.003 25.978C175.035 25.978 175.1 26.0103 175.1 26.0103L175.132 26.075V26.1396C175.132 26.1396 175.1 26.172 175.1 26.2043C175.1 26.2043 175.1 26.2366 175.1 26.269C175.811 26.6247 176.587 26.8834 177.363 27.045C177.395 27.0127 177.46 27.0127 177.492 26.9804C176.684 26.4953 176.005 25.9456 175.455 25.2342ZM178.398 26.657H178.818L179.142 26.8187L179.433 26.851V24.2318C178.657 24.2318 177.913 24.1995 177.169 24.1671C177.428 25.2666 177.88 26.1396 178.398 26.657ZM169.15 22.809C168.988 22.421 168.891 22.0006 168.891 21.5803C168.891 21.1275 168.988 20.6749 169.182 20.2545C168.341 20.5455 167.759 20.8689 167.533 21.2246C167.533 21.3539 167.501 21.4509 167.501 21.5803C167.501 21.6773 167.501 21.7743 167.501 21.8389C167.759 22.1946 168.309 22.518 169.15 22.809ZM180.015 23.9084C179.982 23.8761 180.015 23.8114 180.015 23.7791C180.015 23.7468 180.015 23.5851 180.015 23.5528C180.015 23.4881 180.079 23.4234 180.079 23.3587C180.079 23.2941 180.079 23.2617 180.047 23.1971C180.015 23.1324 180.047 23.1324 180.015 23.0354C179.982 22.9707 179.691 22.518 179.691 22.518L179.627 22.4533C179.627 22.4533 179.691 22.3887 179.691 22.3563C179.724 22.324 179.659 22.2916 179.659 22.2593C179.659 22.227 179.691 22.1946 179.691 22.1623C179.724 22.0976 179.659 22.0653 179.594 22.033C179.562 22.033 179.562 22.033 179.53 22.033V24.1348C179.724 24.1348 179.885 24.1348 180.079 24.1348C180.112 24.0055 180.047 23.9084 180.015 23.9084ZM179.788 19.6724L179.885 19.7048L179.918 19.8018L180.015 19.8341L180.144 19.8988L180.209 19.8341V19.7694L180.241 19.7371L180.37 19.7048L180.5 19.7694L180.597 19.8018C180.597 19.8018 180.661 19.8018 180.694 19.8018C180.726 19.8018 180.823 19.8341 180.823 19.8341C180.855 19.8341 180.888 19.8341 180.888 19.8341L180.952 19.8018L181.049 19.8341H181.146L181.211 19.8018L181.243 19.7371L181.276 19.6401L181.308 19.5754V19.5107L181.276 19.4784V19.3814L181.243 19.4137L181.179 19.3814L181.114 19.4461C181.114 19.4461 181.049 19.4461 181.017 19.4461C180.985 19.4461 180.985 19.4137 180.985 19.3814C180.985 19.3491 180.888 19.3491 180.888 19.3491L180.855 19.3814H180.791L180.758 19.3491H180.661L180.532 19.2521V19.1551C180.532 19.1551 180.5 19.1227 180.5 19.0904C180.5 19.058 180.467 19.0257 180.467 19.0257H180.403L180.37 19.058H180.241V19.1227L180.338 19.2197L180.306 19.2844V19.3814H180.273L180.209 19.3491L180.144 19.2844V19.2521L180.079 19.1874L180.015 19.058V19.0257H179.853C179.885 19.0257 179.95 19.0904 179.95 19.0904V19.1227L179.885 19.058C179.853 19.058 179.853 19.0904 179.853 19.0904V19.1227C179.853 19.1227 179.885 19.1227 179.885 19.1551V19.1874H179.853V19.2197L179.821 19.2521H179.788V19.2197L179.821 19.1874L179.788 19.0904L179.659 18.9934H179.497V19.5754C179.53 19.6078 179.594 19.6724 179.627 19.6724C179.724 19.6724 179.788 19.6724 179.788 19.6724ZM181.146 19.4784V19.5107L181.114 19.5431H181.082L181.049 19.5107L181.146 19.4784ZM180.435 19.4461L180.564 19.4784L180.597 19.5107H180.629V19.5431H180.532L180.435 19.4461ZM179.885 26.851C179.982 26.7864 180.435 26.6247 180.435 26.6247C180.435 26.6247 180.5 26.6247 180.597 26.657C181.114 26.1396 181.567 25.2666 181.825 24.1671C181.761 24.1671 181.696 24.1671 181.631 24.1671C181.631 24.1995 181.631 24.1995 181.631 24.2318C181.599 24.2641 181.567 24.2641 181.534 24.2641C181.502 24.2641 181.47 24.3612 181.47 24.3612C181.47 24.3612 181.502 24.4582 181.47 24.4905C181.47 24.5228 181.437 24.5552 181.405 24.6198C181.34 24.6522 181.211 24.8139 181.146 24.9109C181.082 24.9755 180.985 25.0402 180.855 25.0402C180.726 25.0402 180.597 25.1372 180.597 25.1372L180.5 24.9755C180.5 24.9755 180.5 24.8785 180.5 24.8462C180.5 24.8139 180.403 24.6845 180.37 24.6198C180.338 24.5552 180.241 24.4258 180.241 24.3935C180.209 24.3288 180.209 24.2641 180.209 24.1995C180.209 24.1995 180.209 24.1671 180.176 24.1348C179.982 24.1348 179.788 24.1348 179.562 24.1348V26.7864C179.659 26.9157 179.821 26.9157 179.885 26.851ZM180.144 26.4307L180.209 26.5277L179.982 26.6247L179.918 26.463C179.918 26.4953 180.144 26.4307 180.144 26.4307ZM179.788 18.7347C179.788 18.7347 179.691 18.6377 179.691 18.6053C179.691 18.573 179.627 18.6053 179.627 18.6377V18.7023C179.627 18.7347 179.691 18.767 179.724 18.767C179.756 18.7994 179.756 18.7994 179.756 18.7994L179.788 18.8317H179.982L179.788 18.7347ZM176.684 23.3587L176.652 23.4234C176.652 23.4234 176.652 23.5851 176.652 23.6174C176.652 23.6498 176.587 23.9408 176.555 24.0055C176.684 24.0055 176.846 24.0055 176.975 24.0378C176.91 23.7791 176.846 23.4881 176.813 23.2294C176.781 23.2617 176.749 23.2941 176.749 23.2941C176.749 23.2941 176.716 23.3587 176.684 23.3587ZM182.052 16.5358L182.117 16.5682H182.084C182.311 16.7298 182.537 16.8915 182.763 17.0855V17.0532C182.763 17.0532 182.796 16.8592 182.763 16.7945C182.763 16.7299 182.86 16.7622 182.957 16.7298C183.022 16.7298 183.151 16.6652 183.281 16.6652C182.569 16.3742 181.793 16.1801 181.049 16.0508C181.373 16.1801 181.696 16.3095 182.02 16.5035L182.052 16.5358ZM180.015 16.7945H180.435C180.435 16.7945 180.467 16.8592 180.5 16.8592C180.564 16.8592 180.985 17.0209 180.985 17.0209L181.049 17.0532C180.629 16.4065 180.144 16.0185 179.594 15.9861V16.8915C179.627 16.8592 179.627 16.8592 179.691 16.8592C179.788 16.8592 180.015 16.7945 180.015 16.7945ZM179.788 17.9263H179.918L180.015 17.8939V17.7646L180.079 17.6999H180.112V17.6029H180.403C180.435 17.6029 180.564 17.5383 180.597 17.5059C180.661 17.5059 180.564 17.4089 180.564 17.4089L180.403 17.4736L180.112 17.5382L179.982 17.4736V17.4089C179.982 17.4089 179.918 17.3119 179.982 17.3119C180.047 17.2796 180.112 17.1826 180.112 17.1826L179.982 17.1179L179.885 17.1502L179.918 17.2149L179.853 17.2796L179.724 17.3766V17.5059L179.853 17.6029L179.756 17.7323L179.627 17.8616H179.53V17.991L179.594 18.0233L179.788 17.9263ZM181.243 17.1179L181.405 17.0855C181.405 17.0855 181.696 17.0855 181.858 17.0532C182.02 17.0209 181.955 16.9562 181.955 16.9562L182.278 16.9885V16.9239C182.149 16.8269 182.019 16.7299 181.89 16.6652L181.728 16.8269L181.793 16.9239L181.696 16.9562L181.502 16.7945L181.696 16.6005H181.761C181.308 16.3418 180.791 16.1801 180.273 16.0831C180.629 16.2771 180.952 16.6328 181.243 17.1179ZM176.781 17.2796V17.0855C176.781 17.0532 176.846 16.9562 176.846 16.9562C176.846 16.9562 176.878 16.8592 176.91 16.8592C176.943 16.8592 176.91 16.8269 176.878 16.7945C176.49 17.0532 176.134 17.4089 175.811 17.7646C175.811 17.7969 175.811 17.8293 175.779 17.8616C175.746 17.8939 175.876 17.9263 175.876 17.9263C175.908 17.9263 175.908 17.9586 175.94 17.991L175.811 18.0233H175.94L176.005 18.0556L176.037 18.088L176.005 18.1526L175.973 18.185L175.811 18.2496C175.811 18.2496 175.682 18.3143 175.649 18.3143C175.617 18.3143 175.585 18.3466 175.552 18.3466H175.326C175.261 18.4437 175.197 18.573 175.132 18.67H175.294L175.423 18.6053L175.455 18.6377L175.326 18.7347L175.164 18.767L175.067 18.8317C175.035 18.8964 175.003 18.9934 174.938 19.058C175.617 18.9934 176.296 18.961 176.975 18.9287C177.169 18.185 177.428 17.5382 177.751 17.0532C177.686 17.0532 177.622 17.0532 177.622 17.0532L177.266 17.2472L177.072 17.4736L176.975 17.4412L176.813 17.4089L176.781 17.2796ZM176.037 18.476C176.037 18.476 176.037 18.5407 176.005 18.5407C175.973 18.5407 175.843 18.5407 175.843 18.5407L175.811 18.5083H175.649V18.4437L175.779 18.3466L175.876 18.2173L175.973 18.1526L176.005 18.2496L175.94 18.282H176.037C176.037 18.282 176.102 18.282 176.102 18.3143C176.037 18.379 176.037 18.476 176.037 18.476ZM189.489 23.5528C189.521 23.6174 189.586 23.7144 189.618 23.7791C189.651 23.8114 189.683 23.7791 189.651 23.8761C189.618 23.9731 189.651 24.0055 189.554 24.0701C189.457 24.1671 189.23 24.4258 189.166 24.5228C189.101 24.6198 189.069 24.6522 189.036 24.6522C188.972 24.6522 188.875 24.6845 188.81 24.7169C188.745 24.7169 188.713 24.7169 188.648 24.7492C188.616 24.7492 188.584 24.7815 188.519 24.7492C188.454 24.7492 188.454 24.7169 188.422 24.7169C187.226 25.7193 185.415 26.5277 183.313 26.9804C185.059 26.6893 186.676 26.2366 188.034 25.5899C189.974 24.6522 191.171 23.4557 191.429 22.1946C191.106 22.518 190.556 22.809 189.78 23.0677C189.715 23.1971 189.586 23.3911 189.489 23.5528ZM188.81 24.9755C188.745 25.0079 188.681 25.0725 188.648 25.1049L188.584 25.1372L188.648 24.9109H188.713L188.842 24.8785C188.81 24.9109 188.81 24.9432 188.81 24.9755ZM189.845 20.2545C190.039 20.6749 190.136 21.1275 190.136 21.5803C190.136 22.0006 190.039 22.421 189.877 22.809C190.718 22.518 191.268 22.1946 191.494 21.8389C191.494 21.7419 191.526 21.6449 191.526 21.5803C191.526 21.4509 191.526 21.3216 191.494 21.2246C191.268 20.8689 190.686 20.5455 189.845 20.2545ZM184.024 24.0701C183.378 24.1348 182.699 24.1671 182.02 24.1995C181.761 25.2666 181.308 26.172 180.791 26.7217C180.985 26.754 181.211 26.7864 181.308 26.8187C182.472 26.3013 183.442 25.2989 184.024 24.0701ZM174.938 19.1874C174.615 19.8988 174.453 20.7072 174.453 21.4832H174.485C174.518 21.4832 174.615 21.4509 174.615 21.4509C174.615 21.4509 174.647 21.4832 174.712 21.4832C174.744 21.4832 174.776 21.5156 174.809 21.5156V21.5479H174.873C174.873 21.5479 174.873 21.5803 174.938 21.6126C174.97 21.6126 175.035 21.6773 175.035 21.6773V21.7096C175.035 21.7096 175.035 21.6773 175.1 21.7419C175.132 21.7743 175.132 21.8066 175.197 21.8066C175.229 21.8066 175.294 21.7743 175.358 21.8066C175.423 21.8389 175.552 21.8713 175.552 21.9036C175.585 21.9359 175.617 21.9683 175.617 22.0006C175.617 22.033 175.649 22.0653 175.649 22.0653L175.714 22.1623C175.714 22.1623 175.714 22.1946 175.714 22.227C175.714 22.2593 175.746 22.2916 175.746 22.2916C175.779 22.2916 175.843 22.324 175.843 22.324L175.876 22.3887C175.876 22.3887 176.005 22.3887 176.037 22.3887C176.07 22.421 176.199 22.4533 176.199 22.4857C176.199 22.4857 176.231 22.518 176.264 22.518C176.296 22.518 176.393 22.5827 176.425 22.5827C176.458 22.5827 176.49 22.5503 176.522 22.5827C176.555 22.615 176.587 22.615 176.619 22.6473C176.652 22.6797 176.684 22.712 176.749 22.7444C176.716 22.3887 176.684 22.0006 176.684 21.6449C176.684 20.7395 176.781 19.8664 176.975 19.1227C176.264 19.0904 175.585 19.1227 174.938 19.1874ZM186.644 23.7468C185.835 23.8761 184.994 23.9731 184.186 24.0378C183.636 25.2989 182.699 26.3013 181.567 26.851C181.664 26.851 181.761 26.8834 181.858 26.9157C184.024 26.3983 185.77 25.2342 186.644 23.7468ZM188.422 24.4582C188.422 24.4582 188.357 24.4905 188.325 24.4905C188.293 24.4905 188.228 24.5228 188.228 24.4905C188.228 24.4905 188.228 24.3935 188.163 24.3612C188.099 24.3288 187.937 24.3288 187.937 24.3288C187.905 24.3288 187.808 24.3612 187.711 24.3612C187.646 24.3612 187.646 24.3612 187.549 24.4258C187.452 24.4905 187.484 24.4905 187.42 24.5228C187.355 24.5228 187.323 24.4905 187.258 24.5228C187.193 24.5552 187.161 24.5552 187.096 24.5875C187.032 24.6198 186.935 24.6522 186.902 24.6198C186.87 24.5875 186.838 24.5552 186.838 24.5552C186.838 24.5552 186.999 24.4582 186.967 24.3935C186.967 24.3288 186.967 24.1025 186.967 24.0701C186.967 24.0055 186.935 24.0378 186.967 23.9731C186.967 23.9085 187.032 23.7468 187.064 23.7144C187.096 23.6821 187.129 23.6821 187.161 23.6498C187.064 23.6821 186.967 23.6821 186.838 23.7144C185.997 25.2342 184.315 26.4307 182.214 26.9804C184.833 26.5923 187.032 25.7193 188.422 24.5228V24.4582ZM184.736 21.8066L184.703 21.7419C184.671 22.4857 184.542 23.1971 184.283 23.8761C185.124 23.8114 185.932 23.6821 186.773 23.5528C186.902 23.2941 186.999 23.0354 187.096 22.7767L186.967 22.7444H186.773L186.644 22.712V22.6797L186.579 22.6473V22.615H186.676C186.708 22.615 186.741 22.6473 186.741 22.6473C186.741 22.6473 186.805 22.6797 186.838 22.6797C186.87 22.6797 186.87 22.6797 186.902 22.6797L186.935 22.6473L187.064 22.6797L187.129 22.712C187.161 22.615 187.193 22.518 187.193 22.421H187.096L187.032 22.4533L186.999 22.421H186.902L186.87 22.2916L186.805 22.227V22.13L186.838 22.0653L186.935 22.0976L186.999 22.0006L187.096 21.9683L187.161 21.8713L187.226 21.8389V21.8066C187.226 21.7419 187.226 21.6773 187.226 21.5803C187.226 21.2246 187.161 20.8689 187.096 20.5132C187.064 20.5455 186.999 20.5778 186.967 20.5778C186.902 20.5778 186.741 20.6425 186.741 20.6425L186.676 20.6748V20.7395H186.644L186.611 20.6425C186.611 20.6425 186.547 20.6102 186.45 20.6748C186.385 20.7072 186.353 20.8365 186.353 20.8365L186.417 20.9012C186.417 20.9012 186.45 20.9335 186.482 20.9659C186.514 20.9982 186.611 21.0629 186.611 21.0629C186.611 21.0629 186.676 21.1599 186.676 21.1922C186.676 21.2246 186.676 21.3539 186.676 21.3539L186.579 21.4186L186.45 21.5479H186.417V21.4832L186.45 21.4509H186.353C186.353 21.4509 186.288 21.4186 186.288 21.3862C186.288 21.3539 186.191 21.2892 186.191 21.2892H186.126V21.2246H186.062V21.3216L186.029 21.4509V21.5156H186.062L186.094 21.5479L186.159 21.6449L186.191 21.6773C186.191 21.6773 186.223 21.6773 186.256 21.7096C186.288 21.7419 186.32 21.8066 186.353 21.8066C186.385 21.8066 186.385 21.9683 186.385 21.9683C186.385 22.0006 186.45 22.033 186.45 22.033H186.417L186.223 21.9359C186.223 21.9359 186.126 21.7743 186.126 21.7096C186.126 21.6773 185.997 21.5479 185.964 21.5156C185.932 21.5156 185.964 21.3539 185.964 21.2892C185.964 21.2246 185.867 21.0952 185.867 21.0629C185.867 21.0305 185.77 20.9012 185.77 20.9012C185.77 20.9012 185.77 20.9335 185.77 20.9659C185.77 20.9982 185.706 21.0305 185.706 21.0305L185.641 20.9982C185.641 20.9982 185.641 20.8689 185.641 20.8365C185.609 20.8365 185.576 20.7072 185.512 20.7072C185.447 20.6748 185.415 20.5778 185.415 20.5778C185.415 20.5455 185.318 20.5132 185.318 20.5132L185.285 20.5455L185.188 20.5778H185.124L185.027 20.6102V20.6748C185.027 20.6748 185.027 20.7072 184.994 20.7072C184.962 20.7395 184.865 20.8365 184.865 20.8365C184.833 20.8689 184.768 20.9012 184.768 20.9659C184.768 20.9982 184.671 21.0305 184.671 21.0305C184.671 21.1599 184.703 21.3216 184.703 21.4832C184.703 21.4832 184.8 21.6126 184.833 21.6126C184.833 21.6449 184.833 21.6449 184.833 21.6773V21.7096L184.736 21.8066ZM186.708 20.9012L186.644 20.8689C186.611 20.8689 186.644 20.8042 186.644 20.8042L186.676 20.7395H186.773L186.741 20.8365L186.708 20.9012ZM185.803 21.8066L185.867 21.8389H185.964L185.997 21.9036L186.126 21.9683L186.32 22.0976L186.45 22.1623L186.417 22.227H186.45L186.514 22.2916L186.611 22.324V22.5503H186.547C186.547 22.5503 186.417 22.421 186.385 22.421C186.353 22.3887 186.32 22.3563 186.288 22.324C186.288 22.2917 186.223 22.2593 186.223 22.2593L186.159 22.1946L186.126 22.0653C186.094 22.033 186.094 22.033 186.062 22.0006L185.997 21.9359C185.997 21.9359 185.867 21.8066 185.867 21.7743C185.77 21.8066 185.803 21.8066 185.803 21.8066ZM188.39 19.5754L188.422 19.6724C188.842 19.7694 189.198 19.8664 189.521 19.9634C189.133 19.2521 188.487 18.6053 187.614 18.0556H187.517C187.517 18.0556 187.484 18.0556 187.452 18.0556C187.387 18.0556 187.323 18.0233 187.226 18.0233C187.161 18.0233 187.161 18.0233 187.161 18.0233L187.096 18.2173L187.032 18.3143H187.064L187.161 18.3466L187.193 18.4113H187.258V18.379C187.258 18.379 187.387 18.4437 187.42 18.4437C187.452 18.4437 187.517 18.476 187.517 18.476C187.517 18.476 187.549 18.5083 187.549 18.5407L187.614 18.6377C187.646 18.67 187.711 18.7994 187.711 18.7994V18.8317C187.711 18.8317 187.711 18.8964 187.743 18.8964C187.743 18.8964 187.711 18.961 187.711 18.9934C187.711 19.0257 187.678 19.0904 187.678 19.0904L187.614 19.1551H187.549L187.517 19.1227L187.484 19.1551C187.484 19.1874 187.42 19.2197 187.42 19.2197L187.484 19.2844L187.42 19.3491H187.387L187.42 19.4137C187.42 19.4137 187.517 19.4461 187.549 19.4784C187.775 19.5107 187.969 19.5431 188.163 19.6078L188.228 19.5754L188.26 19.4461L188.196 19.3814V19.3167H188.26L188.293 19.3491L188.39 19.4137L188.357 19.5107L188.39 19.5754ZM188.002 18.8964L187.937 18.7994L187.646 18.5083L187.614 18.4437L187.808 18.573L187.969 18.7023V18.7994L188.066 18.9287L188.034 18.961L188.002 18.8964ZM188.357 19.1874L188.325 19.2844L188.228 19.2521H188.196V19.2844H188.163L188.066 19.2197C188.066 19.2197 188.066 19.1551 188.099 19.1551C188.131 19.1551 188.099 19.1227 188.099 19.1227L188.034 19.0257V18.9934L188.196 19.0904L188.357 19.1227L188.39 19.1874H188.357ZM182.246 18.6377L182.214 18.6053H182.052L181.987 18.6377L181.922 18.7023C181.922 18.767 181.955 18.7994 181.955 18.864C182.02 18.864 182.084 18.864 182.149 18.864L182.084 18.7994V18.767L182.117 18.7994L182.149 18.767L182.117 18.7347L182.149 18.7023H182.278V18.67L182.214 18.6377C182.246 18.7347 182.246 18.6377 182.246 18.6377ZM187.258 19.4461C187.258 19.4137 187.226 19.3814 187.226 19.3814C187.226 19.3814 187.129 19.3814 187.096 19.3814C187.064 19.3814 187.032 19.4137 187.032 19.4137C187.129 19.4137 187.193 19.4137 187.258 19.4461ZM172.933 17.2796H173.127L173.256 17.2472H173.321L173.289 17.2796C173.289 17.2796 173.289 17.3119 173.321 17.3119C173.353 17.3119 173.386 17.2472 173.386 17.2472V17.2149L173.58 17.1826H173.774V17.1502C173.774 17.1179 173.644 17.1502 173.644 17.1502C173.644 17.1502 173.289 17.2149 173.256 17.1826C173.224 17.1826 173.192 17.1502 173.192 17.1179C173.224 17.0855 173.321 17.0855 173.321 17.0532C173.321 17.0532 173.321 17.0532 173.289 17.0532C173.192 17.0855 173.095 17.1179 172.998 17.1826H173.062V17.2149L172.933 17.2796ZM184.057 16.7298C184.186 16.7622 184.348 16.7945 184.218 16.8269C184.121 16.8592 184.348 16.9239 184.348 16.9239L184.703 16.9885C184.703 16.9885 184.994 16.9562 185.091 16.9562C185.188 16.9562 185.415 17.0855 185.415 17.0855L185.77 17.1502H185.964V17.1179C184.865 16.6328 183.572 16.3095 182.149 16.0831C182.699 16.2448 183.216 16.4065 183.701 16.6328C183.83 16.7299 183.96 16.7298 184.057 16.7298ZM172.513 20.0281C172.48 20.0281 172.383 20.0281 172.383 20.0281C172.383 20.0281 172.254 20.0605 172.189 20.0605C172.125 20.0605 172.092 20.0928 172.028 20.1575C171.963 20.3191 171.931 20.4808 171.866 20.6748C171.898 20.8042 172.028 20.8689 172.125 20.8689C172.286 20.8365 172.383 20.8042 172.383 20.7719C172.383 20.7395 172.48 20.6748 172.48 20.6748L172.642 20.6425H172.707C172.707 20.6425 172.739 20.6748 172.707 20.7072C172.674 20.7719 172.577 20.8365 172.577 20.8365C172.577 20.8365 172.513 20.9012 172.513 20.9335C172.513 20.9659 172.448 20.9982 172.416 21.0305C172.383 21.0629 172.545 21.0629 172.545 21.0629L172.771 21.0305L172.901 21.0629C172.901 21.0952 172.836 21.2892 172.836 21.3539C172.836 21.4186 172.933 21.4832 172.998 21.5156C172.998 21.5156 173.03 21.5479 173.095 21.5156C173.159 21.4832 173.256 21.4832 173.256 21.4832L173.353 21.5156L173.418 21.6126L173.45 21.5479L173.515 21.5156L173.547 21.4832C173.547 21.4832 173.515 21.4509 173.58 21.4186C173.644 21.3862 173.58 21.3862 173.644 21.3862C173.709 21.3862 173.709 21.3862 173.774 21.3539C173.838 21.3216 173.871 21.3216 173.871 21.3216L173.903 21.3539L173.871 21.4186V21.4509C173.871 21.4832 173.838 21.5156 173.871 21.5156H173.936L173.903 21.4509V21.4186L174.065 21.3539L174.162 21.3862V21.4186C174.162 21.4186 174.162 21.4186 174.259 21.4186C174.259 21.2246 174.259 21.0305 174.291 20.8365V20.8042C174.356 20.2221 174.485 19.6724 174.712 19.1874C174.485 19.2197 174.259 19.2197 174.065 19.2521C174.065 19.2521 174.065 19.2844 174.033 19.2844C174 19.3167 173.968 19.3491 173.903 19.3814V19.4461L173.677 19.6078C173.612 19.6401 173.547 19.6401 173.515 19.6724C173.483 19.6724 173.386 19.7694 173.386 19.8018C173.353 19.8341 173.353 19.9958 173.353 19.9958C173.353 20.0281 173.386 20.0928 173.386 20.1251C173.386 20.1575 173.418 20.1575 173.386 20.1898C173.353 20.2221 173.321 20.2545 173.289 20.2545H173.256C173.256 20.2545 173.224 20.1575 173.224 20.1251C173.224 20.0928 173.192 20.0605 173.192 20.0605V19.9958L173.159 19.9634C173.159 19.9634 173.095 19.9311 173.062 19.9311C173.03 19.9635 172.998 19.9634 172.998 19.9634C172.998 19.9634 172.933 19.8988 172.868 19.8988C172.804 19.8988 172.642 19.8341 172.642 19.8988C172.642 19.9635 172.739 19.9634 172.642 19.9634C172.545 20.0281 172.545 20.0281 172.513 20.0281ZM173.58 20.9012H173.483L173.45 20.8689V20.8365L173.58 20.9012ZM173.871 20.7719V20.7395L173.968 20.7719L174.065 20.7395C174.065 20.7395 174.13 20.7719 174.13 20.8042L174.227 20.8365V20.8689H174.13L174.065 20.9012H174.033L173.968 20.9659L173.936 20.9335H173.741V20.8365H173.838L173.871 20.7719ZM173.127 20.4808H173.321L173.386 20.5132L173.58 20.5778L173.644 20.6102L173.741 20.6425V20.6748L173.709 20.7072H173.45L173.515 20.6748H173.483L173.418 20.6425L173.386 20.5778H173.321L173.224 20.5455L173.159 20.5132L173.127 20.4808L173.062 20.5132L172.965 20.5455H172.933L173.127 20.4808ZM187.872 18.0233C188.002 18.1203 188.131 18.185 188.228 18.282L188.196 18.2496V18.185C188.196 18.185 188.26 18.185 188.26 18.1526C188.26 18.1203 188.26 18.088 188.26 18.0556C188.26 18.0233 188.26 17.991 188.26 17.991L188.293 17.9586V17.9263L188.228 17.8939V17.8616H188.163L188.196 17.8939H188.163L188.131 17.9586L188.066 17.9263C188.066 17.8939 188.034 17.8939 187.937 17.8939C187.808 17.9263 187.872 18.0233 187.872 18.0233ZM183.83 20.5132C183.83 20.5132 183.766 20.5455 183.766 20.5132C183.766 20.4808 183.669 20.4485 183.669 20.4485L183.572 20.3191H183.507L183.281 20.3515C183.184 20.3192 183.119 20.3191 183.022 20.2868C182.925 20.2868 182.957 20.2545 182.925 20.2221C182.925 20.1898 182.893 20.1575 182.86 20.1575C182.796 20.1575 182.763 20.1898 182.763 20.1898C182.731 20.1898 182.634 20.1251 182.602 20.1251C182.569 20.1251 182.505 20.0928 182.472 20.0605C182.44 20.0281 182.375 19.8988 182.343 19.8988C182.311 19.8988 182.246 19.8988 182.214 19.8988C182.181 19.9311 182.214 19.9635 182.246 19.9958C182.278 20.0281 182.311 20.0928 182.343 20.1251C182.375 20.1575 182.375 20.1898 182.375 20.2221C182.375 20.2545 182.408 20.2868 182.408 20.2868H182.44V20.2221L182.472 20.1898L182.505 20.2221L182.537 20.3191L182.569 20.3515C182.602 20.3515 182.602 20.3515 182.634 20.3515C182.666 20.3515 182.699 20.3515 182.699 20.3191C182.731 20.2868 182.828 20.1898 182.828 20.1898C182.828 20.1898 182.828 20.2221 182.828 20.2868C182.828 20.3515 182.925 20.3838 182.957 20.3838C182.99 20.3838 182.99 20.3838 183.022 20.4162C183.054 20.4162 183.054 20.4485 183.087 20.4808C183.087 20.5132 183.119 20.5132 183.119 20.5132C183.119 20.5132 183.119 20.5778 183.054 20.6425C182.99 20.7072 183.022 20.7719 183.022 20.7719C183.022 20.7719 182.99 20.7719 182.957 20.8042C182.957 20.8365 182.957 20.8365 182.925 20.8365C182.893 20.8365 182.86 20.8689 182.828 20.9012C182.796 20.9335 182.763 20.9335 182.699 20.9335C182.634 20.9659 182.666 21.0305 182.666 21.0305C182.569 21.0629 182.44 21.1276 182.311 21.1599C182.311 21.2246 182.311 21.2892 182.311 21.3539C182.343 21.3539 182.343 21.3539 182.375 21.3539C182.408 21.3539 182.408 21.3539 182.44 21.3539C182.472 21.3539 182.472 21.3539 182.505 21.3539L182.602 21.2892H182.634C182.634 21.2892 182.666 21.4186 182.602 21.4832C182.569 21.5479 182.569 21.7096 182.505 21.8066C182.44 21.8713 182.375 21.9683 182.343 22.033L182.311 22.0653C182.278 22.712 182.214 23.3587 182.052 23.9731C182.731 23.9408 183.41 23.9084 184.089 23.8438C184.38 23.1324 184.542 22.3887 184.542 21.5803H184.509C184.509 21.5803 184.445 21.5156 184.412 21.4509C184.38 21.3862 184.348 21.3539 184.283 21.2246C184.218 21.0952 184.154 21.0305 184.154 20.9659L184.057 20.7072C184.057 20.7072 184.057 20.6748 184.057 20.6425C184.057 20.6102 184.057 20.6102 184.057 20.6102L184.024 20.5778L183.992 20.6425C183.992 20.6425 183.927 20.6748 183.895 20.6748C183.863 20.6748 183.766 20.5455 183.766 20.5455C183.766 20.5455 183.798 20.5455 183.83 20.5132ZM186.902 19.2844L186.87 19.3814C186.902 19.3814 186.935 19.3814 186.967 19.4137V19.3167L186.902 19.2844ZM186.773 17.2472C186.999 17.2796 186.902 17.2472 187.161 17.3442C187.258 17.3766 187.484 17.4089 187.711 17.4412C186.45 16.8915 184.962 16.4712 183.313 16.2125C184.445 16.4388 185.479 16.7945 186.385 17.2149C186.482 17.2149 186.644 17.2472 186.773 17.2472ZM181.89 24.0378C182.019 23.4881 182.117 22.906 182.149 22.2593C182.117 22.2916 182.084 22.324 182.052 22.3563C181.955 22.4857 181.858 22.7767 181.858 22.7767L181.922 22.8414C181.922 22.8414 181.955 22.906 181.955 22.9384C181.955 22.9707 181.955 23.0677 181.955 23.0677C181.955 23.0677 182.02 23.1001 182.02 23.1647C182.02 23.1971 182.02 23.1971 182.02 23.2941C182.02 23.3911 182.02 23.3911 182.02 23.4881C182.02 23.5851 181.858 23.6821 181.793 23.7144C181.728 23.7468 181.728 23.7791 181.696 23.8114C181.664 23.8438 181.631 23.9084 181.631 23.9084C181.631 23.9084 181.664 23.9408 181.664 24.0378C181.728 24.0378 181.793 24.0378 181.89 24.0378ZM174.97 16.6005C175.035 16.5682 174.906 16.5682 174.906 16.5682L174.712 16.6328H174.679C174.324 16.7299 174 16.8269 173.677 16.9562C173.709 16.9562 173.709 16.9562 173.709 16.9562C173.709 16.9562 173.774 16.9239 173.838 16.8915C173.871 16.8915 173.968 16.8915 173.968 16.8915L173.871 16.9885L173.936 17.0209L173.871 17.2149H173.936C173.936 17.2149 174.065 17.1826 174.065 17.2149C174.065 17.2472 174.065 17.1502 174.065 17.1502L174.227 17.1179H174.291L174.388 17.0532L174.356 17.0209L174.291 16.9885L174.421 16.9239L174.615 16.7298L174.744 16.6975V16.7298L174.582 16.8269L174.485 16.9239L174.55 16.9885C174.55 16.9885 174.582 16.9562 174.615 16.9562H174.647C174.712 16.9239 174.776 16.8915 174.841 16.8592C174.647 16.8592 174.809 16.7945 174.809 16.7945L174.938 16.6975L175.1 16.6005L175.358 16.5682L175.488 16.5035L175.035 16.5358C175.067 16.6652 174.938 16.6328 174.97 16.6005ZM174.259 16.9239L174.162 16.8269L174.356 16.7622L174.421 16.7945L174.259 16.9239ZM173.547 12.0088C173.515 12.0088 173.515 12.0411 173.515 12.0735C173.515 12.1058 173.58 12.1058 173.612 12.1058C173.644 12.0735 173.709 12.0088 173.741 11.9765C173.709 11.9765 173.58 12.0088 173.547 12.0088Z" fill="#FEFEFE"/>
<path d="M193.951 1.14389C193.919 1.14389 193.887 1.11155 193.822 1.14389C193.693 1.20856 193.24 1.56425 193.078 1.66126C193.078 1.62892 193.078 1.62893 193.111 1.59659L193.143 1.53192C193.24 1.30557 193.563 0.691181 193.563 0.303149C193.563 0.206141 193.563 0.14147 193.531 0.0767977C193.531 0.0767977 193.531 0.0121266 193.466 0.0121266C193.402 -0.0202094 193.337 0.0121227 193.24 0.109131C193.078 0.270811 192.044 1.24089 192.011 1.24089L191.979 1.27323C191.979 1.27323 191.979 1.24089 191.979 1.20856L192.044 0.982207C192.076 0.820527 192.141 0.626511 192.141 0.497167C192.141 0.432495 192.141 0.367823 192.108 0.335487C192.108 0.303151 192.076 0.270811 192.044 0.270811C191.979 0.270811 191.914 0.303148 191.882 0.36782C191.785 0.5295 190.427 1.95229 190.168 2.1463C190.136 2.17864 190.136 2.17864 190.136 2.17864C190.136 2.11397 190.201 2.01696 190.265 1.85528C190.298 1.75827 190.589 1.11155 190.589 0.820527C190.589 0.788191 190.589 0.755854 190.556 0.723518C190.556 0.691182 190.492 0.658847 190.459 0.658847C190.265 0.658847 189.877 1.07921 188.939 2.1463C188.939 2.1463 188.196 2.98704 188.163 3.01937C188.163 2.98704 188.163 2.95471 188.163 2.92237C188.163 2.76069 188.131 2.43733 188.034 2.27565C187.969 2.21098 187.937 2.17864 187.872 2.17864C187.775 2.17864 187.711 2.27564 187.581 2.53433C187.452 2.82536 186.417 3.89245 185.253 4.79785L185.221 4.83019C184.154 5.67093 183.442 6.22064 182.634 7.44941C181.987 8.38716 180.888 8.8722 180.079 9.26023C179.853 9.35724 179.627 9.45425 179.433 9.55125C179.368 9.55125 178.592 9.45424 177.719 9.48658C177.654 9.13088 177.428 8.12847 176.264 7.41707C175.1 6.67335 173.386 5.57392 172.189 4.53917C171.446 3.89245 170.961 3.27806 170.67 2.89003C170.476 2.66368 170.411 2.56667 170.379 2.56667C170.314 2.53433 170.249 2.56667 170.217 2.59901C170.185 2.63134 170.185 2.66368 170.185 2.76069C170.185 2.8577 170.217 3.01937 170.314 3.27806L170.249 3.24573C170.087 3.14872 169.667 2.9547 169.182 2.27565C168.697 1.59659 168.341 0.626509 168.341 0.626509C168.341 0.594173 168.309 0.561838 168.277 0.561838C168.212 0.561838 168.18 0.626508 168.18 0.69118C168.147 0.820524 168.115 0.982203 168.115 1.24089C168.115 1.46724 168.147 1.7906 168.244 2.21097C168.18 2.17864 167.533 1.56426 166.886 0.497167C166.854 0.464831 166.789 0.367822 166.692 0.400158C166.66 0.400158 166.628 0.432493 166.628 0.464829C166.628 0.497165 166.595 0.529499 166.595 0.594171C166.595 0.852859 166.789 1.37024 167.113 2.04929C166.692 1.66126 166.337 1.24089 165.981 0.788189C165.948 0.755853 165.851 0.594171 165.754 0.594171C165.722 0.594171 165.69 0.594173 165.657 0.626509C165.625 0.658845 165.625 0.691179 165.625 0.755851C165.625 0.982203 165.754 1.43491 166.046 2.04929C165.819 1.88761 165.625 1.72593 165.399 1.56425C165.399 1.56425 165.302 1.49958 165.237 1.53192C165.205 1.56425 165.172 1.62892 165.172 1.72593C165.172 1.91995 165.334 2.27565 165.399 2.40499C165.366 2.40499 165.334 2.37265 165.334 2.37265C165.269 2.34032 165.14 2.27565 165.075 2.27565C165.043 2.27565 165.011 2.27565 164.978 2.30798C164.978 2.34032 164.978 2.34032 164.978 2.37265C164.978 2.502 165.075 2.69602 165.14 2.82536C165.237 2.98704 165.69 3.40741 165.851 3.56909C165.69 3.50442 165.366 3.43975 165.334 3.40741C165.334 3.40741 165.205 3.37507 165.14 3.43974C165.108 3.47208 165.108 3.47208 165.108 3.50441C165.108 3.50441 165.108 3.53675 165.108 3.56909C165.172 3.73077 165.722 4.15113 166.757 4.73318C166.563 4.70085 166.466 4.73319 166.434 4.76552L166.401 4.79785C166.401 4.83019 166.401 4.83019 166.401 4.83019C166.466 4.99187 167.08 5.31523 167.598 5.47691C167.598 5.47691 167.565 5.47691 167.533 5.47691C167.404 5.47691 167.339 5.47692 167.307 5.50925V5.57392C167.339 5.67093 167.371 5.80027 168.535 6.25298C168.374 6.25298 168.277 6.25298 168.244 6.31765V6.38232C168.309 6.51167 168.859 6.86736 169.926 7.19072C169.829 7.22306 169.764 7.22306 169.732 7.25539V7.28773C169.796 7.51408 170.864 7.90211 171.834 8.19314C171.737 8.19314 171.672 8.22548 171.64 8.25781C171.607 8.25781 171.607 8.29014 171.607 8.32248C171.607 8.41949 171.898 8.74285 174.13 9.3249C174.162 9.3249 174.162 9.3249 174.194 9.3249H174.162C174.13 9.35723 174.065 9.35724 174.065 9.42191C174.065 9.48658 174.13 9.55125 174.291 9.64826C174.615 9.84227 175.164 10.0363 175.326 10.101C174.647 10.4567 173.968 10.8447 173.321 11.2651L173.289 11.2974V11.3297C173.289 11.3944 173.256 11.6531 172.998 11.7824C172.836 11.8794 172.61 12.0411 172.545 12.3645C172.545 12.3968 172.545 12.4292 172.545 12.4615C172.545 12.7202 172.707 13.0435 173.03 13.3669C173.095 13.4316 173.159 13.4316 173.159 13.3992C173.192 13.3669 173.192 13.3022 173.192 13.2699C173.192 13.2699 173.127 13.1082 173.192 13.0112C173.224 12.9465 173.256 12.9142 173.321 12.9142C173.515 12.8495 173.709 12.9142 173.806 12.9465L173.903 12.9789C174.032 13.0112 174.291 13.0112 174.485 12.8819C174.647 12.7849 175.164 12.8172 175.455 12.8495H175.649C175.585 12.9465 175.488 13.0435 175.423 13.1082L175.261 13.2376C175.1 13.3669 175.003 13.4316 174.873 13.5933C174.841 13.5933 173.968 13.7549 173.968 13.7549C173.968 13.7549 173.936 13.7549 173.936 13.7873C173.936 13.7873 173.709 14.2076 173.386 14.4987C173.062 14.7897 172.707 14.919 172.707 14.919C172.707 14.919 172.577 15.1131 172.545 15.5334C172.545 15.5658 172.545 15.5981 172.545 15.6628C172.545 15.6951 172.545 15.6951 172.545 15.7274V15.7598C172.545 15.7598 172.61 15.8568 172.674 15.8891C172.707 15.8891 172.804 15.9861 172.933 16.0508C172.933 16.0508 173.03 16.0831 173.127 16.1155H173.159C172.222 16.3742 171.349 16.6975 170.54 17.0855C168.05 18.282 166.66 19.8988 166.66 21.6773C166.66 23.4557 168.018 25.0725 170.54 26.269C172.901 27.4007 176.037 28.0151 179.368 28.0151C182.699 28.0151 185.835 27.4007 188.196 26.269C190.686 25.0725 192.076 23.4557 192.076 21.6773C192.076 19.8988 190.718 18.282 188.196 17.0855C186.708 16.3742 184.93 15.8568 182.99 15.5981C182.99 15.5981 182.99 15.5981 183.022 15.5981C183.119 15.5657 183.151 15.5011 183.184 15.4041C183.313 15.4687 183.636 15.6304 183.895 15.5658C184.251 15.4687 184.348 15.1777 184.348 15.113C184.348 15.0807 184.38 15.0807 184.412 15.0807L184.477 15.113C184.574 15.1454 184.768 15.2101 184.962 15.1454C185.091 15.0807 185.188 14.9514 185.221 14.8867C185.253 14.822 185.285 14.7897 185.318 14.7897C185.35 14.7573 185.382 14.7574 185.447 14.7574C185.544 14.725 185.706 14.725 185.77 14.628C185.77 14.628 185.835 14.4987 185.835 14.4017C185.835 14.3693 185.835 14.2723 185.9 14.24C185.9 14.24 186.417 14.046 186.514 13.6903C186.514 13.6903 186.547 13.5933 186.514 13.4962C186.482 13.3992 186.385 13.3669 186.256 13.3346L182.214 12.2675C182.214 12.2675 182.084 12.2028 181.955 12.0411C182.311 12.0411 183.636 12.0411 184.477 11.7824C184.509 11.7824 184.574 11.7178 184.574 11.6854C184.574 11.6531 184.542 11.6208 184.509 11.5884C184.445 11.5561 184.412 11.5238 184.38 11.5238H184.412C184.574 11.4914 185.706 11.2327 185.964 11.1034C186.094 11.0387 186.126 10.974 186.126 10.9417C186.126 10.877 186.029 10.8447 185.964 10.8447C185.932 10.8447 185.835 10.8447 185.77 10.8124C185.803 10.8124 185.867 10.78 185.867 10.78C186.191 10.7153 187.064 10.5213 187.581 10.295C187.614 10.2626 187.711 10.2303 187.711 10.1656C187.711 10.1333 187.711 10.101 187.646 10.0686C187.549 10.004 187.096 10.004 187.032 10.004C187.032 10.004 187.064 10.004 187.064 9.97162C187.096 9.97162 187.226 9.90695 187.355 9.87461C187.937 9.6806 189.004 9.3249 189.295 8.93687C189.327 8.90454 189.327 8.87219 189.327 8.83986C189.327 8.80752 189.295 8.77519 189.23 8.74285C189.101 8.74285 188.972 8.74285 188.842 8.74285L188.875 8.71052L188.972 8.67818C189.327 8.5165 190.395 7.96679 190.944 7.48175C190.977 7.44941 191.041 7.3524 191.041 7.28773L191.009 7.22306C191.009 7.22306 190.944 7.15839 190.783 7.15839H190.75C190.75 7.15839 190.783 7.12605 190.815 7.12605L190.88 7.09371C191.591 6.73802 192.076 6.38232 192.335 6.0913C192.335 6.0913 192.367 6.02663 192.367 5.99429C192.367 5.96196 192.367 5.96195 192.367 5.96195C192.367 5.92962 192.335 5.89728 192.27 5.89728C192.141 5.89728 191.817 5.92962 191.753 5.96195C191.753 5.96195 191.753 5.92962 191.817 5.89728L191.914 5.83261C192.173 5.67093 192.723 5.2829 193.014 4.79785C193.014 4.76552 193.014 4.66851 192.949 4.63617C192.917 4.63617 192.884 4.60384 192.852 4.63617L192.561 4.70085C192.561 4.70085 192.561 4.70085 192.593 4.66851C192.593 4.66851 193.531 3.69843 193.725 3.14872C193.79 2.98704 193.822 2.89003 193.822 2.82536C193.822 2.79302 193.822 2.76069 193.79 2.76069C193.757 2.72835 193.66 2.76069 193.596 2.82536L193.563 2.85769L192.917 3.24573C192.917 3.24573 192.949 3.21339 192.981 3.18105L193.111 3.01937C193.369 2.69601 193.887 2.11397 193.951 1.62893V1.59659C194.016 1.24089 194.016 1.17622 193.951 1.14389ZM188.907 3.40741C189.683 2.8577 190.653 2.11396 191.494 1.24089C191.494 1.27323 191.494 1.30557 191.429 1.37024C191.268 1.62893 190.265 2.59901 188.842 3.56909C188.907 3.53675 188.907 3.47208 188.907 3.40741ZM192.593 1.17622H192.626L192.658 1.20856C192.658 1.24089 192.626 1.37024 192.464 1.56425C192.27 1.7906 190.492 3.47208 188.39 4.63617C188.487 4.50683 188.551 4.37749 188.616 4.24814C189.683 3.60142 191.041 2.63134 192.593 1.17622ZM188.616 3.63376C188.616 3.6661 188.551 3.7631 188.293 3.98945C188.002 4.18347 187.711 4.34515 187.387 4.50683C187.42 4.44216 187.452 4.40982 187.484 4.34515C187.517 4.31282 187.969 4.05413 188.616 3.63376ZM186.838 7.74044C186.256 7.93445 185.673 8.12847 185.091 8.25781H185.059V8.22548L185.318 7.80511C185.318 7.80511 185.318 7.77277 185.35 7.77277C185.997 7.61109 186.611 7.44941 187.226 7.22306C187.226 7.22306 187.226 7.22306 187.226 7.25539V7.28773C187.226 7.32007 187.226 7.32007 187.226 7.3524C187.129 7.51408 186.999 7.64343 186.838 7.74044ZM186.838 8.19314C186.838 8.22547 186.805 8.22548 186.805 8.25781C186.741 8.35482 186.579 8.48417 186.256 8.61351C185.673 8.80753 185.059 9.00154 184.445 9.13088C184.412 9.13088 184.412 9.13089 184.412 9.09855V9.06621L184.671 8.74285C184.671 8.74285 184.671 8.74285 184.703 8.74285C184.962 8.67818 185.738 8.5165 186.805 8.1608C186.838 8.12846 186.838 8.1608 186.838 8.19314ZM187.129 6.80269C186.644 6.99671 186.126 7.12605 185.673 7.25539C185.641 7.25539 185.641 7.25539 185.641 7.25539V7.22306L185.835 6.80269L185.867 6.77035C186.158 6.70568 186.708 6.544 187.452 6.28531C187.484 6.28531 187.484 6.31765 187.484 6.31765C187.484 6.34999 187.484 6.38232 187.484 6.41466C187.42 6.51166 187.323 6.67335 187.129 6.80269ZM187.387 5.83261C186.967 5.99429 186.547 6.12363 186.126 6.25298H186.094V6.22064L186.223 5.92962C186.223 5.92962 186.223 5.89728 186.256 5.89728C186.676 5.80027 187.096 5.63859 187.517 5.47691C187.517 5.47691 187.549 5.47692 187.549 5.50925V5.57392C187.517 5.63859 187.484 5.76794 187.387 5.83261ZM186.741 5.41224C186.708 5.41224 186.708 5.41224 186.676 5.41224C186.676 5.41224 186.676 5.37991 186.676 5.34757L186.838 5.15355C187.29 4.95954 187.743 4.76552 188.163 4.50683C188.034 4.70085 187.84 4.89487 187.646 5.02421C187.355 5.15355 187.064 5.2829 186.741 5.41224ZM170.702 3.37507C170.734 3.40741 170.831 3.56909 170.831 3.56909C171.155 4.08647 171.931 5.05654 173.192 5.86494C174.453 6.67335 174.679 6.70568 175.94 7.67576C177.201 8.64584 177.104 9.26023 177.104 9.35724C177.104 9.45424 177.007 9.45424 177.007 9.45424C176.749 9.51891 176.167 9.71293 176.07 9.7776C175.973 9.84227 176.005 9.71293 176.005 9.71293C176.167 9.48658 176.199 9.19556 176.199 9.19556C176.231 7.99912 174.259 7.3524 172.545 5.92962C170.799 4.50683 170.734 3.86011 170.67 3.63376C170.605 3.37507 170.67 3.34274 170.702 3.37507ZM170.928 5.89728C171.349 5.96195 171.737 6.02662 172.157 6.0913H172.189L172.545 6.31765V6.34999C172.545 6.34999 172.545 6.38232 172.513 6.34999L172.319 6.31765C172.092 6.28532 171.866 6.25298 171.607 6.22064C171.219 6.12363 170.928 5.99429 170.896 5.92962C170.928 5.92962 170.928 5.92962 170.928 5.89728ZM170.411 5.41224C170.379 5.37991 170.379 5.34757 170.379 5.34757L170.767 5.44458L171.478 5.57392L171.834 5.80027C171.834 5.80027 171.866 5.83261 171.834 5.83261L171.801 5.86494C171.607 5.83261 171.381 5.80027 171.187 5.7356C170.767 5.57392 170.443 5.47691 170.411 5.41224ZM171.737 6.64101C172.028 6.70568 172.319 6.73802 172.642 6.77035L173.224 6.83503L173.58 7.02904C173.58 7.02904 173.612 7.06138 173.58 7.06138L173.547 7.09371L172.804 6.99671C172.674 6.99671 172.545 6.96437 172.416 6.93203C171.898 6.83503 171.737 6.67335 171.737 6.64101ZM172.674 7.32007C172.804 7.3524 172.901 7.3524 172.998 7.3524C173.321 7.38474 173.644 7.41708 173.968 7.44941L174.097 7.54642C174.097 7.54642 174.13 7.57875 174.097 7.57875L174.065 7.61109H174.033C173.903 7.57876 173.709 7.57875 173.515 7.57875C173.062 7.54642 172.674 7.41707 172.642 7.38474C172.642 7.3524 172.674 7.32007 172.674 7.32007ZM170.54 4.86253H170.573L170.637 4.89486L170.993 5.15355C170.993 5.15355 171.025 5.18589 170.993 5.18589L170.961 5.21822L170.637 5.12121C170.573 5.12121 170.508 5.08888 170.443 5.05654C170.055 4.9272 169.99 4.83019 169.958 4.76552C169.958 4.76552 169.958 4.73318 169.926 4.73318C169.926 4.73318 169.926 4.73319 169.926 4.70085C170.152 4.76552 170.346 4.83019 170.54 4.86253ZM170.249 4.44216C170.249 4.44216 170.217 4.4745 170.217 4.44216C169.99 4.37749 169.764 4.31282 169.538 4.24814C169.344 4.15113 169.15 4.02179 168.988 3.89245C168.956 3.86011 168.956 3.86011 168.956 3.86011C169.247 3.95712 169.602 4.08646 169.958 4.18347L170.249 4.37749C170.249 4.40983 170.249 4.44216 170.249 4.44216ZM168.471 1.6936C169.117 2.89003 169.829 3.27806 169.893 3.3104C170.055 3.40741 170.152 3.69843 170.217 3.82777V3.86011C170.152 3.82778 169.085 3.18106 168.794 2.56667C168.535 2.11397 168.471 1.82294 168.471 1.6936ZM168.341 3.05171C168.632 3.21339 168.923 3.37507 169.247 3.50441L169.505 3.73077V3.7631C169.505 3.7631 169.473 3.79544 169.473 3.7631L169.214 3.66609C169.214 3.66609 169.182 3.63376 169.053 3.60142C168.923 3.53675 168.826 3.47208 168.697 3.43974C168.503 3.3104 168.406 3.24573 168.374 3.18105C168.374 3.14872 168.341 3.14872 168.341 3.11638C168.341 3.08405 168.341 3.08405 168.341 3.05171ZM166.207 1.37024H166.24C166.304 1.46725 166.498 1.72594 166.919 2.11397L166.951 2.1463C167.08 2.27565 167.242 2.37266 167.404 2.502C167.598 2.63134 167.759 2.76068 167.953 2.85769C167.986 2.92237 167.986 2.98704 168.018 3.05171C167.759 2.89003 167.501 2.72835 167.274 2.53433C167.016 2.34032 166.789 2.11396 166.563 1.88761L166.337 1.66126L166.272 1.56425C166.24 1.53192 166.175 1.46724 166.175 1.40257L166.207 1.37024ZM166.013 2.34032C166.013 2.30798 166.013 2.30798 166.013 2.30798H166.046C166.078 2.34032 166.207 2.43733 166.369 2.59901C166.692 2.82536 167.307 3.21339 168.341 3.66609C168.406 3.7631 168.471 3.82778 168.568 3.92478C167.824 3.60142 166.951 3.18105 166.272 2.63134L166.11 2.502C166.078 2.43733 166.046 2.37266 166.013 2.34032ZM166.272 3.24573L166.175 3.18105V3.11638C166.175 3.11638 166.207 3.08405 166.207 3.11638C166.369 3.24573 166.951 3.63376 168.05 4.05413C168.309 4.15114 168.6 4.28048 168.859 4.37749C169.053 4.44216 169.279 4.50683 169.473 4.60384C169.538 4.63618 169.602 4.66851 169.635 4.73318V4.79785C169.635 4.83019 169.635 4.86253 169.635 4.86253C169.311 4.76552 168.988 4.66851 168.697 4.53917C167.727 4.18347 166.983 3.79544 166.401 3.37507C166.434 3.34274 166.272 3.24573 166.272 3.24573ZM166.725 4.1188C166.725 4.1188 166.628 4.05413 166.595 4.05413C166.595 4.05413 166.595 4.05413 166.595 4.02179V3.98945C166.595 3.98945 166.628 3.95712 166.628 3.98945L166.822 4.08646C167.145 4.24814 167.501 4.40983 167.856 4.53917C168.438 4.76552 169.117 4.99187 169.796 5.18589L169.926 5.21822C169.958 5.25056 170.055 5.31523 170.055 5.3799C170.055 5.41224 170.055 5.41224 170.055 5.41224C170.023 5.41224 169.99 5.41224 169.861 5.3799L169.505 5.2829L168.891 5.08888H168.859L168.632 5.02421L168.309 4.9272C167.727 4.66851 167.145 4.40983 166.725 4.1188ZM167.986 5.25056C167.986 5.25056 167.921 5.21823 167.662 5.08888L167.565 5.05654V5.02421C167.565 4.99187 167.598 4.99187 167.598 4.99187C167.953 5.12122 168.341 5.25056 168.729 5.3799C169.279 5.54158 169.829 5.67093 170.411 5.80027C170.476 5.83261 170.605 5.96196 170.637 5.99429C170.67 6.02663 170.637 6.02663 170.637 6.05896C170.314 5.99429 169.958 5.89728 169.635 5.80027C169.311 5.70327 168.988 5.60626 168.665 5.47691C168.406 5.44458 168.212 5.34757 167.986 5.25056ZM168.956 5.99429C168.923 5.96196 168.923 5.99429 168.956 5.99429L168.923 5.96195C168.923 5.92962 168.956 5.92962 168.956 5.92962C169.247 6.02662 170.055 6.31765 171.252 6.544C171.316 6.57634 171.51 6.73802 171.543 6.77035C171.543 6.77035 171.575 6.80269 171.543 6.80269C171.51 6.80269 171.51 6.80269 171.478 6.77035C170.508 6.57634 169.667 6.31765 168.956 5.99429ZM170.346 6.8997C170.346 6.86736 170.346 6.86736 170.346 6.8997L170.314 6.86736L170.346 6.83503C170.928 6.99671 171.51 7.12605 172.092 7.25539C172.157 7.28773 172.254 7.3524 172.286 7.38474C172.319 7.38474 172.319 7.41708 172.319 7.44941C172.254 7.44941 172.222 7.41707 172.189 7.41707C171.575 7.25539 170.961 7.09371 170.346 6.8997ZM171.607 7.67576C171.575 7.67576 171.575 7.64343 171.575 7.64343L171.607 7.61109C171.963 7.7081 172.48 7.80511 173.095 7.90212C173.127 7.90212 173.159 7.93445 173.192 7.93445C173.256 7.96679 173.418 8.0638 173.418 8.09613C172.836 7.99913 172.222 7.86978 171.607 7.67576ZM174.194 8.71052C174 8.67818 173.774 8.64585 173.483 8.61351C173.45 8.61351 173.45 8.58117 173.45 8.58117C173.45 8.54884 173.45 8.54884 173.483 8.54884C173.709 8.58117 173.935 8.58118 174.162 8.61351C174.162 8.61351 174.227 8.6135 174.291 8.64584C174.356 8.67818 174.485 8.74286 174.485 8.77519C174.388 8.74286 174.291 8.74285 174.194 8.71052ZM174.518 8.22548C174.097 8.19314 173.741 8.06379 173.709 8.03146C173.677 7.99912 173.677 7.99912 173.677 7.99912C174 8.03146 174.291 8.0638 174.615 8.0638C174.615 8.0638 174.647 8.09613 174.679 8.09613C174.776 8.12847 174.873 8.22548 174.518 8.22548ZM175.261 8.77519C175.197 8.77519 175.035 8.74285 174.97 8.71052L174.938 8.67818C174.873 8.64584 174.906 8.61351 174.906 8.61351H175.261C175.261 8.61351 175.326 8.67818 175.326 8.71052C175.294 8.74285 175.294 8.74286 175.261 8.77519ZM175.358 9.16322C175.294 9.13088 175.326 9.13088 175.326 9.13088H175.488C175.488 9.13088 175.52 9.16322 175.52 9.19556C175.52 9.19556 175.52 9.19556 175.488 9.22789C175.52 9.19556 175.423 9.19555 175.358 9.16322ZM175.52 13.4639L176.296 12.8819C176.361 12.8172 176.393 12.8172 176.393 12.8172H176.878C176.878 12.8172 176.167 13.2376 175.94 13.3346C175.746 13.4316 175.552 13.4963 175.52 13.4639ZM179.336 12.4938C179.336 12.4292 179.206 12.2028 178.721 12.1058C178.721 12.1058 178.689 12.0735 178.754 12.0735C178.818 12.0411 179.174 11.9765 179.691 12.1381H179.724C179.724 12.1058 179.627 11.9118 179.4 11.8471C179.4 11.8471 179.368 11.8148 179.4 11.8148C179.433 11.8148 180.306 11.6854 180.306 12.9465C180.306 12.9465 180.273 12.9789 180.241 12.9465C180.209 12.9142 180.015 12.6555 179.918 12.5262C179.788 12.3968 179.788 12.5262 179.788 12.7202C179.788 12.9142 179.691 13.5933 179.627 13.4962C179.562 13.3669 179.497 13.1082 179.4 13.2376C179.303 13.3669 179.206 13.6579 178.754 13.9166C178.754 13.9166 178.721 13.949 178.721 13.8843C178.721 13.8196 178.786 13.4639 178.786 13.4639V13.3992C178.786 13.3992 178.333 13.7873 177.816 14.0136C177.816 14.0136 177.751 14.046 177.751 13.9813C177.783 13.9166 177.945 13.4962 177.945 13.4962C177.945 13.4962 177.525 13.7549 176.749 13.7873C176.749 13.7873 176.716 13.7873 176.716 13.7549C176.716 13.7226 176.684 13.4639 176.555 13.3669C176.555 13.3669 176.975 13.2052 177.363 12.9465C177.557 12.8172 177.751 12.6878 177.88 12.5585C178.204 12.4615 178.657 12.3968 179.303 12.4615C179.303 12.5262 179.368 12.5585 179.336 12.4938ZM181.761 14.919L181.728 14.9837C181.696 14.9837 181.664 14.9837 181.567 14.9514L180.823 13.8519V13.8196C180.855 13.8196 180.855 13.8196 180.855 13.8196L181.761 14.919ZM181.146 13.4316C181.179 13.4316 181.179 13.4316 181.146 13.4316L182.86 14.9514V14.9837C182.86 15.016 182.828 15.0484 182.796 15.0484C182.763 15.0807 182.699 15.0807 182.634 15.0484L182.569 15.016L181.825 14.2076L181.308 13.6256L181.146 13.4316C181.146 13.4639 181.146 13.4639 181.146 13.4316ZM180.888 14.531C180.855 14.531 180.855 14.531 180.855 14.531L180.564 13.949V13.9166H180.597L180.888 14.4987C180.92 14.4987 180.92 14.531 180.888 14.531ZM180.985 12.0411H180.952C180.791 11.8794 180.629 11.7178 180.435 11.6208L180.403 11.5884C180.403 11.5884 180.435 11.5561 180.435 11.5884C180.435 11.5884 180.726 11.7501 180.985 12.0411C180.985 12.0088 180.985 12.0088 180.985 12.0411ZM180.694 12.3322C180.694 12.3645 180.694 12.3968 180.661 12.4292C180.629 12.4292 180.597 12.4292 180.597 12.3968C180.403 11.9118 180.112 11.7178 180.112 11.7178C180.079 11.6854 180.079 11.6531 180.079 11.6208C180.112 11.5884 180.144 11.5884 180.176 11.5884C180.144 11.6208 180.467 11.8148 180.694 12.3322ZM173.741 14.628C173.871 14.434 174.291 13.9813 174.291 13.9813C174.291 13.9813 174.873 13.9166 175.197 13.8519C175.52 13.7873 176.167 13.6903 176.167 13.6903V13.7549C176.167 13.8196 176.037 13.8196 176.037 13.8196C175.714 13.8519 175.617 14.0136 175.585 14.1753C175.585 14.337 175.488 14.531 175.488 14.531C175.488 14.4663 175.423 14.24 175.261 14.1753C175.067 14.1106 174.679 14.24 174.485 14.4663C174.324 14.725 174.485 15.0807 174.485 15.0807C174.162 14.9514 174.13 14.725 174.162 14.6603C174.162 14.5633 174.259 14.4017 174.259 14.3693C174.259 14.337 174.227 14.337 174.227 14.337C174.227 14.337 173.968 14.5633 173.936 14.6603C173.936 14.7574 174.033 15.0484 174.033 15.0484C174.033 15.0484 173.774 14.8544 173.677 14.7574C173.644 14.6927 173.741 14.628 173.741 14.628ZM173.936 15.8568C173.903 15.8244 173.903 15.7921 173.871 15.7921L173.709 15.5981C173.709 15.5981 173.709 15.5981 173.677 15.5658V15.5011C173.709 15.4364 173.741 15.4041 173.774 15.3717C173.838 15.4364 174.097 15.5981 174.485 15.6628H174.518V15.6304C174.518 15.6304 174.518 15.5334 174.518 15.5011C174.582 15.5011 174.744 15.5334 174.938 15.5334C174.938 15.5334 174.97 15.5334 175.003 15.5011C175.003 15.5011 175.003 15.4687 175.003 15.4364V15.3394C174.938 15.2747 174.776 15.0807 174.776 14.919C174.776 14.822 174.873 14.725 175.035 14.6603C175.164 14.628 175.294 14.6927 175.358 14.7897C175.552 15.113 175.423 15.2424 175.423 15.2424C175.423 15.2424 175.423 15.2747 175.423 15.3071L175.455 15.3394C175.455 15.3394 175.779 15.2424 175.779 14.919V14.725C175.779 14.5633 175.779 14.4987 175.876 14.3693C175.876 14.3693 175.973 14.3047 176.037 14.4017C176.07 14.434 176.199 14.628 176.846 14.531C176.813 14.5957 176.749 14.6927 176.716 14.725C176.716 14.725 176.684 14.7573 176.684 14.7897C176.684 14.822 176.716 14.822 176.749 14.8544C176.846 14.8544 177.557 14.8867 178.172 14.5957C178.172 14.628 178.139 14.725 178.107 14.7897C178.074 14.822 178.074 14.822 178.107 14.8544C178.107 14.8867 178.139 14.8867 178.172 14.8867C178.236 14.8867 178.851 14.725 179.465 13.9813C179.465 14.0136 179.53 14.1106 179.594 14.2076C179.627 14.24 179.659 14.2723 179.691 14.24C179.691 14.24 179.724 14.24 180.015 13.8519C180.015 13.8519 180.015 13.8519 180.047 13.8843C180.079 13.9166 180.37 14.4987 180.532 14.8544C180.532 14.8544 180.694 15.113 180.888 15.113H181.017C181.114 15.113 181.146 15.113 181.211 15.1454L181.308 15.2101C181.373 15.2424 181.437 15.3071 181.534 15.3394C180.855 15.2747 180.176 15.2424 179.465 15.2424C177.557 15.2424 175.649 15.4364 173.936 15.8568ZM188.81 17.6676C188.939 17.7323 189.036 17.7969 189.166 17.8616C190.912 18.9287 191.85 20.2221 191.85 21.5802C191.85 23.1971 190.556 24.6845 188.196 25.8163C185.867 26.9157 182.796 27.5301 179.53 27.5301C176.264 27.5301 173.192 26.9157 170.864 25.8163C168.503 24.6845 167.21 23.1971 167.21 21.5802C167.21 20.3515 167.953 19.155 169.376 18.185C169.796 17.8939 170.314 17.6029 170.864 17.3442C170.928 17.3119 170.993 17.2796 171.025 17.2796C173.321 16.2125 176.328 15.6304 179.497 15.6304C182.763 15.6304 185.835 16.2448 188.163 17.3442C188.39 17.4412 188.584 17.5383 188.81 17.6676ZM181.955 15.3394C182.084 15.3071 182.181 15.2101 182.181 15.2101C182.181 15.2101 182.181 15.2101 182.214 15.2101L182.311 15.2747L182.472 15.3717C182.278 15.3717 182.117 15.3717 181.955 15.3394ZM184.057 14.9837C184.024 15.016 183.96 15.0807 183.766 14.9514L181.373 13.1729L181.308 13.1082C181.308 13.1082 181.308 13.1082 181.308 13.0759H181.34L181.47 13.1406L183.927 14.6927C183.927 14.6927 184.057 14.7897 184.089 14.8544V14.8867C184.089 14.9514 184.089 14.9514 184.057 14.9837ZM184.93 14.4987V14.531C184.897 14.5957 184.8 14.628 184.736 14.628H184.703L184.574 14.5633L182.699 13.4962L181.599 12.8495L181.567 12.8172C181.567 12.8172 181.567 12.8172 181.567 12.7849C181.567 12.7849 181.567 12.7849 181.599 12.7849L181.664 12.8172L184.897 14.4017V14.434L184.93 14.4987ZM185.544 14.143C185.512 14.2076 185.415 14.2723 185.35 14.24H185.318L181.696 12.5585V12.5262L181.728 12.4938L184.833 13.6903L185.609 13.9813C185.576 14.046 185.544 14.0783 185.544 14.143ZM185.803 13.5286C185.835 13.5286 185.867 13.5609 185.9 13.6256C185.9 13.6579 185.9 13.6903 185.9 13.7226C185.835 13.7873 185.738 13.7549 185.738 13.7549L182.02 12.3645L181.955 12.3322C181.955 12.3322 181.955 12.2998 181.987 12.2998H182.052L185.803 13.5286ZM182.343 10.1656C181.34 10.877 179.336 11.1357 178.915 11.1357C178.495 11.1357 178.171 11.6531 177.557 12.0735C176.943 12.5262 176.296 12.3968 176.296 12.3968C176.458 12.1705 176.425 11.8471 176.425 11.8471C176.264 12.1381 175.973 12.3645 175.649 12.4615C175.391 12.5262 175.294 12.5262 174.938 12.5262C174.615 12.5262 174.356 12.6555 174.194 12.6878C174.033 12.7202 173.774 12.6555 173.774 12.6555C173.871 12.5908 174.065 12.5262 174.162 12.5262C174.259 12.5262 174.582 12.4292 174.582 12.4292C174.227 12.3322 173.741 12.5262 173.741 12.5262C173.483 12.6232 173.353 12.5262 173.353 12.5262C172.998 12.6232 173.03 12.9142 173.03 12.9142C173.03 12.9142 172.901 12.7202 172.901 12.3968C172.901 12.0735 173.644 11.7178 173.644 11.7178C174.033 11.6531 174.227 11.8471 174.227 11.8471C174.324 12.0411 174.485 12.1381 174.615 12.0088C174.744 11.9118 174.776 11.7501 174.873 11.7501C174.97 11.7501 175.067 11.7501 175.067 11.7501L175.197 11.6531C175.197 11.6208 175.164 11.6208 175.164 11.6208C175.164 11.6208 174.97 11.6854 174.421 11.6854C173.871 11.7178 173.677 11.3621 173.677 11.3621C174.679 11.0387 175.682 10.101 176.749 9.87461C177.816 9.64826 178.948 9.84228 178.948 9.84228C178.657 10.198 178.56 10.4567 178.56 10.4567C181.017 8.83986 182.537 8.35482 182.537 8.35482C183.572 6.47933 184.703 5.63859 185.609 5.05654C186.482 4.4745 187.581 3.11638 187.646 2.9547C187.743 2.76069 187.808 2.76069 187.808 2.76069C187.775 3.43975 187.129 4.15114 186.579 4.70085C186.029 5.21823 185.221 5.80027 185.221 5.80027C185.156 5.86495 185.221 5.89728 185.221 5.89728C185.221 5.89728 185.382 5.92962 185.415 5.92962C185.447 5.92962 185.447 5.99429 185.447 5.99429C185.285 6.25298 184.962 6.47933 184.93 6.51166C184.897 6.57634 184.93 6.57634 184.93 6.57634C184.93 6.57634 184.994 6.57634 185.059 6.60867C185.124 6.64101 185.059 6.70568 185.059 6.70568L184.542 7.19072C184.509 7.22306 184.509 7.25539 184.509 7.25539C184.509 7.25539 184.736 7.22306 184.768 7.22306C184.8 7.22306 184.8 7.28773 184.8 7.28773C184.703 7.54642 184.38 7.83744 184.348 7.86978C184.315 7.93445 184.315 7.93445 184.315 7.93445C184.315 7.93445 184.542 7.93445 184.574 7.93445C184.606 7.93445 184.574 7.96679 184.574 7.96679C184.154 8.58118 183.313 9.06621 183.313 9.06621C183.313 9.06621 183.572 9.16322 183.572 9.19556C183.604 9.22789 183.572 9.22789 183.572 9.22789C183.022 9.61593 182.149 9.90695 182.149 9.90695C182.149 9.90695 182.343 10.004 182.343 10.0363C182.375 10.101 182.343 10.1656 182.343 10.1656ZM183.345 10.8124C183.022 10.8447 182.505 10.8124 182.505 10.8124C182.472 10.8124 182.44 10.78 182.44 10.7477C182.44 10.7153 182.472 10.683 182.505 10.683C182.505 10.683 183.022 10.683 183.345 10.683C183.378 10.683 183.41 10.7153 183.41 10.7477C183.41 10.78 183.378 10.8124 183.345 10.8124ZM185.124 9.87461L185.059 9.90695C184.865 9.97163 184.703 10.0363 184.509 10.101C184.348 10.1333 184.186 10.1656 184.057 10.198C183.992 10.198 183.927 10.2303 183.895 10.2303C183.636 10.2626 183.41 10.295 183.184 10.3273C182.957 10.3597 183.151 10.2303 183.184 10.198H183.216C183.442 10.1656 184.121 10.101 185.156 9.87461C185.124 9.80994 185.156 9.84228 185.124 9.87461ZM183.733 9.7776C183.701 9.74527 183.701 9.7776 183.733 9.7776L183.895 9.61592C183.96 9.55125 184.024 9.55125 184.024 9.55125C184.283 9.51892 185.091 9.35723 186.223 9.00154C186.223 9.00154 186.256 9.00154 186.223 9.03388L186.191 9.06621C186.126 9.13089 185.867 9.22789 185.479 9.35724C184.93 9.51892 184.348 9.64826 183.733 9.7776ZM188.066 8.9692C188.066 8.9692 188.034 8.9692 188.034 9.00154C187.937 9.03387 187.096 9.45424 185.673 9.84228C185.77 9.77761 185.867 9.71293 185.964 9.61592C186.547 9.45424 187.226 9.22789 188.002 8.9692C188.034 8.9692 188.066 8.96921 188.066 8.93687C188.099 8.90454 188.099 8.93686 188.066 8.9692ZM189.877 7.61109C189.845 7.64343 189.715 7.7081 189.457 7.83744C189.327 7.90212 189.166 7.96679 189.004 8.0638C188.939 8.09613 188.875 8.12846 188.778 8.1608C188.325 8.35482 187.775 8.58117 187.161 8.80752C186.967 8.87219 186.773 8.93687 186.579 9.03388C186.611 8.9692 186.676 8.90453 186.708 8.8722C186.902 8.80752 187.064 8.74285 187.258 8.67818C187.937 8.45183 188.648 8.19314 189.424 7.83744C189.586 7.7081 189.748 7.64343 189.877 7.61109C189.942 7.51408 189.877 7.57876 189.877 7.61109ZM190.783 6.51166C190.783 6.544 190.783 6.544 190.783 6.57634C190.75 6.60867 190.621 6.67335 190.395 6.80269L189.748 7.15839L189.489 7.28773C189.069 7.51408 188.616 7.7081 188.163 7.90212C187.84 8.03146 187.484 8.19314 187.096 8.32248C187.161 8.22547 187.193 8.12847 187.258 8.03146C187.517 7.93445 187.743 7.86978 188.002 7.77277C188.681 7.51408 189.392 7.15839 190.298 6.70568C190.395 6.64101 190.718 6.51167 190.783 6.47933C190.75 6.447 190.75 6.47933 190.783 6.51166ZM192.205 4.99187C192.205 5.12122 190.815 5.92962 189.586 6.544L188.713 6.96437C188.26 7.15839 187.84 7.3524 187.42 7.51408C187.484 7.38474 187.517 7.22306 187.549 7.09371C189.133 6.544 190.653 5.80027 192.108 4.9272C192.108 4.9272 192.173 4.89486 192.205 4.89486C192.205 4.9272 192.205 4.9272 192.205 4.99187ZM192.82 3.56909C192.787 3.69843 190.265 5.50925 187.678 6.60867C187.711 6.44699 187.711 6.31765 187.743 6.1883C189.489 5.54158 191.138 4.63618 192.626 3.53675C192.723 3.47208 192.755 3.43974 192.82 3.47208C192.852 3.47208 192.82 3.53675 192.82 3.56909ZM193.369 1.91995C193.272 2.04929 190.589 4.44216 187.743 5.67093C187.743 5.60626 187.743 5.57392 187.743 5.50925C187.743 5.44458 187.743 5.37991 187.743 5.34757C190.718 4.1188 193.272 1.82294 193.272 1.79061C193.337 1.75827 193.369 1.72593 193.402 1.75827C193.466 1.82294 193.434 1.85528 193.369 1.91995ZM13.2901 20.6102C13.2901 18.8964 12.2877 18.864 11.544 18.864H10.6709V17.7646C12.0613 17.8293 13.5165 17.9263 15.1979 17.9263C16.8794 17.9263 18.3669 17.8616 19.822 17.7646V18.864H19.3693C18.6579 18.864 17.6231 18.9287 17.6231 20.6102V25.6546C16.2003 26.075 12.8051 26.8187 10.1535 26.8187C4.33303 26.8187 0 23.3587 0 17.0532C0 12.1705 3.00725 7.28773 10.2829 7.28773C12.8051 7.28773 15.489 7.90212 17.6555 8.61351L17.4938 13.9166H15.7476C15.7153 10.8447 13.6135 9.00154 10.7356 9.00154C6.0145 9.00154 4.65639 12.5585 4.65639 17.0532C4.65639 21.3862 6.91991 25.2342 11.0913 25.2342C11.8997 25.2342 12.7081 25.0725 13.2901 24.9432V20.6102ZM21.8915 10.3597C21.8915 9.26023 21.7298 8.74285 19.8867 8.71052V7.61109C21.1801 7.67577 22.6352 7.77277 24.0903 7.77277C25.5131 7.77277 27.0006 7.7081 28.4557 7.61109V8.71052C26.4509 8.74285 26.2892 9.26023 26.2892 10.3597V20.3838C26.2892 23.3587 28.1 24.4582 30.7192 24.4582C34.2439 24.4582 35.4079 22.615 35.4079 18.8964V10.3597C35.4079 9.26023 35.2463 8.74285 33.2091 8.71052V7.61109C34.1145 7.67577 35.1169 7.77277 36.1517 7.77277C36.9924 7.77277 37.8978 7.7081 38.7062 7.61109V8.71052C37.2188 8.74285 37.0571 9.26023 37.0571 10.3597V19.0904C37.0571 25.2342 33.4031 26.8187 29.6845 26.8187C25.0604 26.8187 21.8915 25.5252 21.8915 20.0281V10.3597ZM39.9027 25.3636C42.0692 25.3312 42.2308 24.8139 42.2308 23.7144V10.3597C42.2308 9.26023 42.0692 8.74285 40.032 8.71052V7.61109C41.4871 7.67577 42.9746 7.77277 44.3974 7.77277C45.8202 7.77277 47.3076 7.7081 49.2154 7.61109V8.71052C46.7579 8.74285 46.5639 9.26023 46.5639 10.3597V23.9731C46.5639 24.7492 46.5962 25.0402 48.0513 25.0402C51.0909 25.0402 53.7425 24.4582 54.4215 20.9335H55.6503C55.2299 22.7443 54.8419 24.5875 54.5832 26.4307C52.4814 26.366 50.1208 26.269 47.4693 26.269C44.6561 26.269 42.1015 26.3336 39.8703 26.4307V25.3636H39.9027ZM56.1677 25.3636C58.3342 25.3312 58.4959 24.8139 58.4959 23.7144V10.3597C58.4959 9.26023 58.3342 8.74285 56.3294 8.71052V7.61109C58.6252 7.67577 60.9534 7.77277 63.2816 7.77277C65.6421 7.77277 67.9703 7.7081 70.3309 7.61109C70.3309 9.16322 70.4279 11.168 70.5249 12.3645H69.2638C69.1021 9.13088 67.3559 9.03388 64.7367 9.03388C63.605 9.03388 62.8612 9.03388 62.8612 9.84228V16.4388H65.0277C67.0326 16.4388 67.744 16.1801 67.744 14.0136H68.8111C68.7141 15.113 68.6494 16.2125 68.6494 17.3119C68.6494 18.573 68.7141 19.8018 68.8111 20.6425H67.744V19.8664C67.7116 18.0233 66.9032 17.6999 65.2218 17.6999H62.8612V23.7144C62.8612 24.8139 63.0229 25.3312 65.6098 25.3636V26.463C63.9607 26.3983 62.1822 26.3013 60.7594 26.3013C59.3689 26.3013 57.7521 26.366 56.1677 26.463V25.3636ZM82.4245 9.51892C81.9395 8.8722 81.1311 8.71052 80.5814 8.71052H80.2904V7.61109C81.3574 7.67577 82.4569 7.77277 83.4916 7.77277C84.5587 7.77277 85.6581 7.7081 86.7576 7.61109L96.038 19.5754H96.1027V10.3273C96.1027 9.22789 95.941 8.71051 93.7098 8.67818V7.57875C94.8739 7.64343 96.038 7.74044 96.9434 7.74044C97.8488 7.74044 99.0129 7.67576 99.6596 7.57875V8.67818C97.9458 8.71051 97.7841 9.22789 97.7841 10.3273V26.4307H95.7146L84.1383 11.3621H84.0737V23.7144C84.0737 24.8139 84.2354 25.3312 86.4989 25.3636V26.463C85.3348 26.3983 84.1707 26.3013 83.2653 26.3013C82.3599 26.3013 81.1958 26.366 80.0317 26.463V25.3636C82.2628 25.3312 82.4569 24.8139 82.4569 23.7144L82.4245 9.51892ZM100.727 25.3636C102.958 25.3312 103.152 24.8139 103.152 23.7144V10.3597C103.152 9.26023 102.99 8.74285 100.953 8.71052V7.61109C103.249 7.67577 105.577 7.77277 107.905 7.77277C110.266 7.77277 112.594 7.7081 114.955 7.61109C114.955 9.16322 115.052 11.1681 115.149 12.4292H113.887C113.726 9.13088 111.98 9.03388 109.36 9.03388H108.326C107.679 9.03388 107.485 9.26023 107.485 9.80994V16.1155H109.49C111.495 16.1155 112.206 15.5981 112.206 13.5933H113.273C113.176 14.628 113.111 15.6951 113.111 16.7298C113.111 17.991 113.176 19.2197 113.273 20.0281H112.206C112.206 17.8616 111.495 17.3442 109.49 17.3442H107.485V23.8438C107.485 24.5875 107.841 24.8462 108.552 24.8462H109.651C112.562 24.8462 114.696 24.4258 115.31 21.2569H116.507C116.054 22.9707 115.795 24.6845 115.537 26.3983C113.111 26.3337 110.686 26.2366 108.261 26.2366C105.739 26.2366 103.217 26.3013 100.694 26.3983L100.727 25.3636ZM116.054 7.61109C117.347 7.67577 118.609 7.77277 119.902 7.77277C121.131 7.77277 122.327 7.7081 123.556 7.61109V8.71052H123.039C122.36 8.80752 122.327 9.13088 122.327 9.45424C122.327 9.74527 122.457 10.3273 122.618 10.9417L125.658 21.6449H125.722L128.471 12.7525L127.824 10.1656C127.501 8.8722 127.307 8.71052 126.208 8.71052H125.625V7.61109C126.919 7.67577 128.277 7.77277 129.57 7.77277C130.993 7.77277 132.448 7.7081 133.903 7.61109V8.71052H133.451C132.578 8.71052 132.093 8.93687 132.093 9.42191C132.093 9.84228 132.222 10.3273 132.416 11.2974L134.777 22.0653H134.841L138.366 11.0387C138.56 10.392 138.722 9.90695 138.722 9.38957C138.722 8.80753 138.172 8.67818 137.331 8.67818H136.717V7.57875C137.719 7.64343 138.916 7.74044 139.692 7.74044C140.532 7.74044 141.373 7.67576 142.214 7.57875V8.67818C141.05 8.67818 140.5 9.55125 140.08 10.8447L134.906 26.5923H132.093L129.247 15.7598H129.182L125.658 26.5923H122.845L118.059 10.7477C117.509 8.9692 117.38 8.74285 115.989 8.74285L116.054 7.61109ZM154.016 13.1729H152.497C152.432 10.5213 151.656 8.83986 148.649 8.83986C147.194 8.83986 145.771 9.45425 145.771 11.3297C145.771 15.1131 155.245 13.7226 155.245 20.5778C155.245 24.9755 151.947 26.7864 148.099 26.7864C146.127 26.7864 143.637 26.172 141.923 25.1372C142.02 23.6174 142.052 21.4186 142.052 19.8988H143.863C143.863 22.7444 144.995 25.0725 147.937 25.0725C149.78 25.0725 151.462 24.3288 151.462 22.5827C151.462 18.1526 142.149 19.5431 142.149 12.8495C142.149 9.29256 144.768 7.25539 148.713 7.25539C150.557 7.25539 152.432 7.64342 154.243 7.99912L154.016 13.1729Z" fill="#FEFEFE"/>
</g>
</svg>
