<svg width="98" height="72" viewBox="0 0 98 72" fill="none" xmlns="http://www.w3.org/2000/svg">
<g id="Vector">
<path d="M8.40036 63.1321V71.9981H6.34838V68.3639H2.31978V71.9981H0.267801V63.1321H2.31978V66.6269H6.34838V63.1321H8.40036Z" fill="white"/>
<path d="M20.1394 70.0991H16.0223L15.2365 71.9981H13.1337L17.0869 63.1321H19.1144L23.0789 71.9981H20.9252L20.1394 70.0991ZM19.4931 68.541L18.0875 65.1461L16.6818 68.541H19.4931Z" fill="white"/>
<path d="M33.4519 71.9981L31.741 69.5282H29.8529V71.9981H27.8009V63.1321H31.6392C34.0077 63.1321 35.4907 64.3605 35.4907 66.3499C35.4907 67.68 34.8199 68.654 33.6667 69.1495L35.6546 72H33.4519V71.9981ZM31.5261 64.8051H29.8548V67.8948H31.5261C32.7792 67.8948 33.4142 67.3127 33.4142 66.3499C33.4123 65.374 32.7792 64.8051 31.5261 64.8051Z" fill="white"/>
<path d="M42.6208 64.8051H39.7831V63.134H47.5105V64.8051H44.6728V71.9981H42.6208V64.8051Z" fill="white"/>
<path d="M60.5422 69.5791C60.5422 71.1108 59.3268 71.9981 56.996 71.9981H52.4096V63.1321H56.7416C58.9575 63.1321 60.0994 64.0571 60.0994 65.4362C60.0994 66.3236 59.6434 67.0074 58.9217 67.3861C59.9091 67.7045 60.5422 68.4657 60.5422 69.5791ZM54.4503 64.677V66.7663H56.4891C57.4897 66.7663 58.0342 66.4121 58.0342 65.715C58.0342 65.018 57.4897 64.677 56.4891 64.677H54.4503ZM58.477 69.3643C58.477 68.6164 57.9061 68.2622 56.8434 68.2622H54.4503V70.4533H56.8434C57.908 70.4533 58.477 70.1236 58.477 69.3643Z" fill="white"/>
<path d="M72.7636 70.3515V71.9981H65.8973V63.1321H72.5978V64.7787H67.9361V66.7041H72.0533V68.2999H67.9361V70.3515H72.7636Z" fill="white"/>
<path d="M84.0354 70.0991H79.9183L79.1325 71.9981H77.0297L80.981 63.1321H83.0085L86.973 71.9981H84.8193L84.0354 70.0991ZM83.3891 68.541L81.9834 65.1461L80.5778 68.541H83.3891Z" fill="white"/>
<path d="M93.0913 64.8051H90.2535V63.134H97.981V64.8051H95.1433V71.9981H93.0913V64.8051Z" fill="white"/>
<path d="M51.5448 26.4716C43.1126 34.9646 34.6823 43.4595 26.0146 52.1918C23.3408 49.4374 20.9158 46.894 18.4398 44.4015C12.6419 38.5668 6.80249 32.7773 1.03847 26.9106C0.486378 26.3492 0.0774883 25.3884 0.0642983 24.6046C-0.0204944 19.4896 -0.00918843 14.3708 0.0284972 9.25391C0.0680671 3.96368 3.63124 0.261658 8.91665 0.0638395C11.6131 -0.0378956 14.317 0.0205065 17.0172 0.0506503C19.6721 0.080794 21.9239 1.06423 23.697 3.06503C24.3678 3.82239 24.9933 4.61743 25.7489 5.52739C26.8249 4.49874 27.6464 3.77717 28.3945 2.98401C30.3127 0.949312 32.6643 0.00731932 35.4455 0.0336951C37.8083 0.0563029 40.1731 0.0920988 42.5341 0.0280434C48.04 -0.122675 52.1647 4.05412 52.1232 9.68723C52.0893 14.3539 52.1157 19.0224 52.1232 23.689C52.1232 24.1788 52.1854 24.6687 52.2514 25.654C53.8907 24.0488 55.2511 22.7244 56.6003 21.3905C63.4779 14.5931 70.3367 7.77876 77.2596 1.02656C77.8248 0.474548 78.8028 0.10717 79.6055 0.0770259C82.5826 -0.0341291 85.5673 -0.005868 88.5483 0.0431156C94.1992 0.137315 97.9509 3.98441 97.9772 9.65897C97.9866 11.6824 97.9226 13.7095 97.9923 15.731C98.1035 19.0148 96.9691 21.6713 94.5591 23.9565C92.0926 26.2945 92.4695 25.7783 94.5799 27.862C96.8598 30.1134 98.0959 32.7076 97.9942 35.9462C97.9226 38.2503 98.0074 40.5582 97.9716 42.8623C97.8924 47.8794 94.0278 51.9111 89.0382 51.9412C77.2237 52.0109 65.4112 51.9469 53.5967 51.9959C52.1892 52.0015 52.0761 51.3176 52.0799 50.2268C52.1025 43.03 52.0931 35.8313 52.0874 28.6326C52.0874 27.9788 52.0328 27.3251 52.0026 26.6713C51.8444 26.6035 51.6936 26.5376 51.5448 26.4716Z" fill="white"/>
</g>
</svg>
