<svg width="70" height="60" viewBox="0 0 70 60" fill="none" xmlns="http://www.w3.org/2000/svg">
<path id="Vector" d="M57.0379 24.864L56.9907 0L50.1146 2.208L50.2089 13.02L36.1971 16.932L22.1853 13.02L22.2797 2.208L15.3799 0L15.3328 24.852L4.57624 21.276L4.81213 29.4L16.2174 32.976L19.048 39.204H21.1238L17.5973 31.38L6.68745 27.984L6.5813 23.928L17.3024 27.492L17.1845 2.616L20.2746 3.552L20.2864 23.388L22.2207 23.784L22.2443 15.024L25.3109 15.948L25.3463 24.504L27.2098 24.972L27.257 16.404L30.4768 17.316V25.68L32.4229 26.244L32.3993 17.772L35.23 18.576L35.2772 34.272L31.2789 39.252L33.6613 39.24L36.1853 36.084L38.7094 39.24L41.0918 39.276L37.0817 34.308L37.1289 18.612L39.9596 17.808L39.936 26.28L41.8821 25.716V17.352L45.1019 16.44L45.1373 25.008L47.0008 24.54L47.0362 15.984L50.1028 15.06L50.1264 23.82L52.0607 23.424L52.0725 3.588L55.1626 2.652L55.0446 27.528L65.7658 23.964L65.6596 28.02L54.7734 31.392L51.2468 39.216H53.3227L56.1533 32.988L67.5586 29.412L67.7944 21.288L57.0379 24.864ZM6.7818 53.364V50.136L6.72283 43.584L9.90733 43.596L9.9663 50.088V53.388C10.0017 55.116 9.31761 56.772 8.09099 57.972C6.91154 59.172 5.31929 59.844 3.65628 59.844H3.55013C2.27633 59.856 1.03791 59.46 0 58.728L1.60404 55.896C2.14659 56.376 2.84246 56.64 3.56192 56.616H3.63269C5.37826 56.58 6.77001 55.14 6.7818 53.364ZM15.0969 43.584V56.46H21.4541V59.676H11.9242V43.584H15.0969ZM22.834 43.584H26.0185V59.676H22.834V43.584ZM37.5063 52.476V43.536H40.6908V60L31.1491 50.76V59.7H27.9764V43.248L37.5063 52.476ZM50.091 43.488C52.214 43.488 54.2662 44.352 55.7759 45.876L53.5114 48.18C52.615 47.244 51.3884 46.728 50.1146 46.728C48.8408 46.716 47.6142 47.232 46.7296 48.18C45.8214 49.092 45.3142 50.34 45.3142 51.648C45.3142 52.944 45.8214 54.192 46.7296 55.116C47.6142 56.052 48.8408 56.58 50.1264 56.556C51.9899 56.556 53.6765 55.452 54.4667 53.736H49.9377V50.664H58.064C58.2881 53.676 57.321 55.86 55.7641 57.432C54.278 58.98 52.2258 59.844 50.091 59.82C45.6681 59.82 42.0826 56.16 42.0708 51.66C42.0472 49.488 42.8964 47.4 44.4297 45.876C45.904 44.304 47.9562 43.44 50.091 43.476V43.488ZM70 43.584L63.9141 56.46H70V59.676H58.8778L64.9638 46.788H58.8778V43.584H70Z" fill="white"/>
</svg>
