<svg width="146" height="40" viewBox="0 0 146 40" fill="none" xmlns="http://www.w3.org/2000/svg">
<g id="Vector">
<path d="M43.7275 4.58599L32.9331 27.7707H43.9524L54.7719 4.58599H43.7275Z" fill="white"/>
<path d="M30.0096 4.58599L24.7123 15.949L19.415 4.58599H8.3707L9.49512 7.00637L0 27.7962H11.0193L15.1172 19.0828L19.1901 27.7962H30.2095L41.0289 4.61146H30.0096V4.58599Z" fill="white"/>
<path d="M146 8.78981L134.556 0L132.282 4.81529H103.097C102.347 4.81529 101.598 5.0191 100.973 5.37579C100.074 5.85987 99.349 6.6242 98.8992 7.59235L96.6753 12.7389L93.2771 20.1783L92.7024 21.3758C91.2531 24.4076 93.402 27.949 96.7253 27.949H115.491C117.315 27.949 118.989 26.879 119.763 25.172L122.112 20.1529H122.087L125.261 13.5796H113.991L110.918 20.1529H103.897L107.47 12.7389H128.534L126.285 17.5287L146 8.78981Z" fill="white"/>
<path d="M70.9635 12.5095C73.2374 12.1529 74.2868 12.0255 75.3113 9.80892L77.76 4.58599H57.5454L53.9223 12.5095H57.8453L55.7214 17.0955L50.7489 27.7962H61.7683L67.6402 15.2357C67.5903 15.2102 68.6897 12.8662 70.9635 12.5095Z" fill="white"/>
<path d="M92.0277 17.9363L92.9772 15.9236L95.9257 9.55414C97.8247 4.58599 93.402 4.56051 93.402 4.56051H80.3587L77.3603 10.9809H82.6575C82.6575 10.9809 83.8819 11.0828 83.8069 12.1529C83.732 13.2229 82.8324 13.2994 82.8324 13.2994L79.4342 13.4522C79.4342 13.4522 77.76 13.4013 73.962 13.758C70.8386 14.2166 69.0645 17.7834 69.0645 17.7834L64.242 27.7452H75.2613L77.76 22.242C77.76 22.242 77.76 22.2166 77.785 22.2166C78.0599 21.5287 78.2348 21.2484 78.6096 21.2484C78.9344 21.2484 79.2593 22.242 79.2593 22.242L81.0084 27.7707H92.0277L89.2292 20.9427C90.9033 20.1783 92.0277 17.9363 92.0277 17.9363Z" fill="white"/>
<path d="M128.109 37.0955C127.609 37.0955 127.135 37.0955 126.66 37.0955C126.76 36.8153 126.835 36.535 126.935 36.2548C126.96 36.2038 127.01 36.2038 127.035 36.2038C128.109 36.2038 129.184 36.2038 130.258 36.2038C130.358 36.2038 130.358 36.2293 130.333 36.3057C129.983 37.3503 129.658 38.3694 129.309 39.414C129.184 39.7452 128.884 39.8471 128.584 39.9236C128.359 39.9745 128.134 39.9745 127.909 39.9745C126.535 39.9745 125.186 39.9745 123.811 39.9745C123.562 39.9745 123.337 39.949 123.112 39.8726C122.837 39.7707 122.762 39.6433 122.837 39.3376C123.462 37.4268 124.086 35.4904 124.711 33.5796C124.811 33.2739 125.036 33.121 125.311 33.0191C125.56 32.9427 125.835 32.9172 126.11 32.9172C127.484 32.9172 128.834 32.9172 130.208 32.9172C130.458 32.9172 130.708 32.9427 130.933 33.0191C131.208 33.121 131.283 33.2739 131.208 33.5541C131.058 34.0127 130.908 34.4968 130.758 34.9554C130.733 35.0573 130.683 35.0828 130.583 35.0828C130.033 35.0828 129.458 35.0828 128.909 35.0828C128.759 35.0828 128.759 35.0318 128.809 34.9299C128.909 34.6242 129.009 34.293 129.134 33.9618C129.159 33.8853 129.184 33.8344 129.059 33.8344C128.284 33.8344 127.509 33.8344 126.735 33.8344C126.66 33.8344 126.61 33.8599 126.585 33.9363C126.035 35.5924 125.511 37.2739 124.961 38.9299C124.936 39.0318 124.961 39.0318 125.036 39.0318C125.81 39.0318 126.585 39.0318 127.36 39.0318C127.41 39.0318 127.46 39.0318 127.484 38.9554C127.684 38.3694 127.884 37.7325 128.109 37.0955Z" fill="white"/>
<path d="M134.681 32.9427C134.006 34.9809 133.356 37.0191 132.682 39.0573C133.107 39.0573 133.531 39.0573 133.956 39.0573C134.356 39.0573 134.781 39.0573 135.181 39.0573C135.28 39.0573 135.33 39.0318 135.355 38.9299C135.98 36.9936 136.63 35.0573 137.254 33.121C137.304 32.9936 137.354 32.9427 137.479 32.9427C138.054 32.9427 138.654 32.9427 139.253 32.9427C139.129 33.2994 139.029 33.6561 138.904 34.0127C138.329 35.7707 137.754 37.5287 137.18 39.2866C137.08 39.6178 136.855 39.7962 136.53 39.8726C136.28 39.949 136.005 39.9745 135.755 39.9745C134.356 39.9745 132.982 39.9745 131.582 39.9745C131.333 39.9745 131.083 39.949 130.858 39.8726C130.583 39.7707 130.508 39.6178 130.608 39.3376C131.283 37.2484 131.982 35.1338 132.657 33.0446C132.682 32.9681 132.682 32.9172 132.782 32.9172C133.431 32.9427 134.031 32.9427 134.681 32.9427Z" fill="white"/>
<path d="M114.716 39.9745C115.316 39.1083 115.89 38.242 116.49 37.4013C117.49 35.949 118.489 34.4968 119.489 33.0191C119.539 32.9427 119.614 32.8917 119.714 32.8917C120.313 32.8917 120.888 32.8917 121.488 32.8917C121.588 32.8917 121.638 32.9172 121.638 33.0446C121.687 35.0064 121.737 36.9936 121.787 38.9554C121.787 39.2611 121.812 39.5669 121.812 39.8471C121.812 39.949 121.812 39.9745 121.687 39.9745C121.113 39.9745 120.538 39.9745 119.988 39.9745C119.888 39.9745 119.863 39.949 119.888 39.8726C119.913 39.5159 119.913 39.1338 119.938 38.7771C119.938 38.6752 119.913 38.6497 119.813 38.6497C119.089 38.6497 118.339 38.6497 117.615 38.6497C117.515 38.6497 117.49 38.6752 117.44 38.7516C117.215 39.1338 116.965 39.4904 116.74 39.8726C116.715 39.9236 116.69 39.9745 116.615 39.9745C115.965 39.9745 115.341 39.9745 114.716 39.9745ZM118.039 37.7325C118.664 37.7325 119.264 37.7325 119.888 37.7325C119.988 37.7325 119.963 37.656 119.963 37.6051C119.988 36.6115 120.013 35.6433 120.038 34.6497C120.038 34.6242 120.063 34.5987 120.013 34.5732C119.339 35.6178 118.689 36.6624 118.039 37.7325Z" fill="white"/>
<path d="M114.416 39.0573C114.316 39.3376 114.216 39.6178 114.141 39.8981C114.116 39.9745 114.091 40 114.016 40C113.991 40 113.991 40 113.966 40C112.267 40 110.568 40 108.844 40C108.719 40 108.694 39.9745 108.744 39.8471C109.494 37.5796 110.218 35.3376 110.968 33.0701C110.993 32.9936 111.018 32.9427 111.118 32.9427C112.842 32.9427 114.591 32.9427 116.315 32.9427C116.34 32.9427 116.34 32.9427 116.39 32.9427C116.29 33.2229 116.215 33.5032 116.115 33.8089C116.09 33.8853 116.015 33.8599 115.965 33.8599C114.916 33.8599 113.891 33.8599 112.842 33.8599C112.717 33.8599 112.667 33.8853 112.642 34.0127C112.442 34.6242 112.242 35.2102 112.067 35.8217C112.067 35.8471 112.042 35.8981 112.042 35.9236C113.017 35.9236 113.966 35.9236 114.966 35.9236C114.866 36.2293 114.766 36.5096 114.691 36.7898C114.666 36.8917 114.591 36.8408 114.541 36.8408C113.667 36.8408 112.767 36.8408 111.893 36.8408C111.768 36.8408 111.718 36.8662 111.668 36.9936C111.468 37.656 111.243 38.3185 111.018 38.9809C111.018 39.0064 110.993 39.0318 110.993 39.0573C112.117 39.0573 113.242 39.0573 114.416 39.0573Z" fill="white"/>
<path d="M141.552 35.9236C142.552 35.9236 143.501 35.9236 144.501 35.9236C144.401 36.2038 144.301 36.4841 144.226 36.7643C144.201 36.8662 144.126 36.8408 144.076 36.8408C143.351 36.8408 142.627 36.8408 141.927 36.8408C141.752 36.8408 141.552 36.8408 141.377 36.8408C141.302 36.8408 141.277 36.8408 141.252 36.9172C141.028 37.6051 140.803 38.3185 140.578 39.0064C140.578 39.0064 140.578 39.0318 140.578 39.0573C141.727 39.0573 142.877 39.0573 144.026 39.0573C143.926 39.3631 143.826 39.6433 143.751 39.9236C143.726 40 143.651 39.9745 143.601 39.9745C142.952 39.9745 142.327 39.9745 141.677 39.9745C140.603 39.9745 139.528 39.9745 138.454 39.9745C138.329 39.9745 138.304 39.949 138.354 39.8217C139.104 37.5541 139.828 35.3121 140.578 33.0446C140.603 32.9681 140.628 32.9427 140.703 32.9427C142.427 32.9427 144.176 32.9427 145.9 32.9427C145.925 32.9427 145.925 32.9427 145.95 32.9427C145.85 33.2229 145.775 33.5032 145.675 33.8089C145.65 33.8853 145.575 33.8599 145.525 33.8599C144.476 33.8599 143.451 33.8599 142.402 33.8599C142.302 33.8599 142.252 33.8853 142.202 33.9873C141.977 34.6242 141.752 35.2611 141.552 35.9236Z" fill="white"/>
<path d="M104.921 39.0318C105.996 39.0318 107.045 39.0318 108.094 39.0318C107.995 39.3376 107.895 39.6178 107.82 39.8981C107.795 40 107.72 39.9745 107.645 39.9745C106.545 39.9745 105.446 39.9745 104.346 39.9745C103.797 39.9745 103.222 39.9745 102.647 39.9745C102.772 39.6178 102.872 39.2611 102.997 38.9299C103.647 36.9682 104.271 35.0318 104.921 33.0701C104.946 32.9682 104.996 32.9172 105.121 32.9172C105.721 32.9172 106.32 32.9172 106.92 32.9172C106.245 34.9809 105.596 36.9936 104.921 39.0318Z" fill="white"/>
<path d="M101.923 35.5159L43.7025 35.7962L101.173 37.3248L101.923 35.5159Z" fill="white"/>
</g>
</svg>
