<svg width="72" height="72" viewBox="0 0 72 72" fill="none" xmlns="http://www.w3.org/2000/svg">
<g id="Vector">
<path d="M34.4585 71.9943C33.7947 71.9376 33.1365 71.8809 32.4726 71.8185C28.6199 71.4554 24.9205 70.4854 21.3855 68.9027C15.2973 66.1797 10.3268 62.0783 6.49112 56.6268C3.57466 52.4743 1.63413 47.8907 0.663865 42.9043C0.340443 41.2479 0.130503 39.5801 0.0510665 37.901C0.0453924 37.7818 0.0170222 37.6627 0 37.5436C0 36.5168 0 35.4843 0 34.4576C0.0397184 34.0151 0.0794368 33.5783 0.113481 33.1358C0.436902 28.8812 1.50362 24.8195 3.28528 20.945C5.17474 16.8379 7.75076 13.213 11.0133 10.0873C15.6774 5.61719 21.1359 2.5936 27.4057 1.03926C30.6796 0.228056 34.0046 -0.106638 37.3637 0.0295086C43.2874 0.262092 48.8366 1.82778 53.9659 4.80598C60.3209 8.49329 65.1268 13.6442 68.3724 20.2359C70.1143 23.7644 71.2264 27.4857 71.703 31.3943C72.7414 39.9034 71.0675 47.8397 66.5113 55.1065C62.1933 61.9876 56.1788 66.8605 48.5756 69.7422C45.4265 70.9335 42.1639 71.6426 38.8049 71.8865C38.385 71.9149 37.9651 71.9603 37.5452 72C36.5182 71.9943 35.4912 71.9943 34.4585 71.9943ZM35.9792 71.1207C55.2937 71.1207 70.8916 55.6114 71.1356 36.4601C71.3853 16.7699 55.5093 0.897443 36.0643 0.874752C16.6987 0.852061 1.05537 16.4352 0.873805 35.6545C0.692235 55.2994 16.5626 71.1094 35.9792 71.1207Z" fill="white"/>
<path d="M4.91941 39.6425C3.7392 30.861 6.65567 18.4774 17.8733 10.4674C28.7221 2.7184 43.2193 2.84321 53.8127 10.2405C65.3878 18.3185 68.2646 30.9234 67.09 39.6482C46.3684 39.6425 25.6411 39.6425 4.91941 39.6425ZM66.3127 38.7746C66.3297 38.6327 66.3581 38.5023 66.3638 38.3775C66.4943 36.5508 66.4886 34.7299 66.3013 32.9089C65.9212 29.2556 64.9396 25.7669 63.2884 22.4823C60.1053 16.1742 55.3277 11.4715 48.9444 8.44223C43.6051 5.91218 37.9765 5.07828 32.1152 5.81007C28.9888 6.19581 25.9985 7.05808 23.1501 8.40252C17.6577 10.9893 13.283 14.8581 10.0941 20.026C6.6046 25.6704 5.17474 31.8254 5.64001 38.4342C5.65703 38.7008 5.72512 38.8086 6.03152 38.8086C10.5821 38.7972 15.1327 38.8029 19.689 38.8029C19.8081 38.8029 19.9216 38.8029 20.0635 38.8029C20.0521 38.6781 20.0408 38.5987 20.0351 38.525C19.8649 37.1181 19.6266 35.7113 19.5358 34.2931C19.4166 32.37 19.5698 30.4469 19.7514 28.5239C19.9216 26.7256 20.6082 25.1656 21.6635 23.7304C22.8835 22.0682 24.2679 20.5423 25.7432 19.107C26.6454 18.2278 27.4624 17.2918 28.1263 16.2253C29.3746 14.2228 30.3902 12.1125 31.1903 9.89446C31.3832 9.36122 31.7293 9.00384 32.2286 8.7826C32.4783 8.67482 32.7336 8.56703 32.9946 8.49896C34.4869 8.10187 36.0076 8.05649 37.5282 8.22667C38.175 8.30041 38.8219 8.44791 39.446 8.61809C40.195 8.82231 40.7057 9.27613 40.978 10.059C41.761 12.2714 42.7881 14.3646 44.008 16.3728C44.808 17.6832 45.9258 18.7043 46.9755 19.7878C48.2919 21.1436 49.5459 22.5504 50.6069 24.1161C51.3389 25.1939 51.963 26.3171 52.1219 27.6389C52.2467 28.6884 52.3829 29.7378 52.4566 30.793C52.6042 32.9543 52.5474 35.1043 52.2183 37.2486C52.1389 37.7535 52.0481 38.2527 51.963 38.7746C56.7576 38.7746 61.5238 38.7746 66.3127 38.7746ZM45.2563 38.7575C45.3017 38.7746 45.3187 38.7859 45.3414 38.7859C46.5443 38.7916 47.7415 38.7973 48.9444 38.7802C49.0295 38.7802 49.1657 38.6441 49.1827 38.559C49.3927 37.3393 49.6423 36.1254 49.7785 34.8944C49.9828 32.9827 49.9147 31.0653 49.665 29.1592C49.5175 28.036 49.3302 26.9298 48.8593 25.886C48.099 24.1955 47.0436 22.6979 45.8804 21.274C45.0974 20.3153 44.2406 19.4191 43.6108 18.3356C42.5838 16.577 41.8575 14.688 41.1312 12.7933C40.8929 12.1692 40.6603 11.5396 40.422 10.9099C39.8659 11.1708 39.8602 11.1765 39.9737 11.6984C40.0134 11.8743 40.0418 12.0558 40.0645 12.2316C40.1269 12.6685 39.9851 12.9464 39.5992 13.1506C39.3666 13.2754 39.1283 13.3832 38.8956 13.508C38.2204 13.8597 37.5055 14.1207 36.9835 14.739C36.4842 15.329 35.4458 15.2666 34.8727 14.739C34.555 14.444 34.1862 14.1944 33.8117 13.9675C33.2954 13.6555 32.7507 13.3832 32.223 13.0939C31.9166 12.9237 31.7634 12.6571 31.7974 12.3167C31.8315 11.9934 31.9222 11.6814 31.996 11.324C31.8655 11.2276 31.6896 11.0971 31.491 10.9496C31.4399 11.0801 31.4059 11.1708 31.3719 11.2616C30.7477 13.0145 30.2427 14.8184 29.4143 16.4976C28.7164 17.9101 27.9561 19.2772 26.8837 20.4628C26.1914 21.2343 25.5559 22.0626 24.9431 22.8965C24.024 24.1558 23.1842 25.4776 22.8097 27.0036C22.543 28.0927 22.3898 29.2216 22.282 30.3391C22.0097 33.0904 22.2196 35.8134 22.8438 38.5079C22.8948 38.7235 22.9913 38.7972 23.2126 38.7916C24.3133 38.7802 25.4141 38.7859 26.5149 38.7859C26.6113 38.7859 26.7021 38.7689 26.8042 38.7632C26.7588 38.3207 26.7191 37.918 26.6794 37.5549C32.9379 38.8313 39.151 38.9277 45.3925 37.4131C45.3471 37.8499 45.3017 38.298 45.2563 38.7575ZM37.5906 13.4853C37.636 13.5364 37.6757 13.5874 37.7211 13.6328C38.1977 13.3662 38.6971 13.1279 39.151 12.8273C39.5084 12.5947 39.6163 12.1806 39.5028 11.8743C39.4404 11.7041 39.3269 11.6247 39.185 11.7665C38.646 12.3338 38.1183 12.9124 37.5906 13.4853ZM34.016 13.6839C34.0557 13.6385 34.0897 13.5931 34.1294 13.5477C33.6018 12.9691 33.0797 12.3848 32.5464 11.8175C32.3932 11.653 32.2627 11.7551 32.223 11.931C32.1379 12.294 32.2286 12.6344 32.5464 12.8386C33.0173 13.145 33.5223 13.4059 34.016 13.6839Z" fill="white"/>
<path d="M8.30114 50.5569C26.7815 50.5569 45.2392 50.5569 63.748 50.5569C61.677 54.4484 58.9705 57.7557 55.5547 60.4672C50.3629 64.5914 44.4449 66.8888 37.8233 67.2576C23.2182 68.0631 12.6248 59.1625 8.30114 50.5569ZM62.2274 51.4135C62.1423 51.4078 62.0969 51.4078 62.0458 51.4078C56.3037 51.4078 50.5615 51.4078 44.8194 51.4022C44.6378 51.4022 44.5584 51.4759 44.4619 51.612C42.3909 54.681 40.9951 58.045 40.1553 61.6415C39.9454 62.5435 39.7581 63.4511 39.5482 64.3531C39.4347 64.8466 39.1283 65.153 38.6176 65.2154C38.1977 65.2664 37.7779 65.3175 37.3523 65.3175C36.1437 65.3175 34.9295 65.3061 33.7209 65.2664C32.8698 65.2381 32.5294 64.9204 32.3478 64.0978C32.223 63.5249 32.1095 62.9519 31.9847 62.3846C31.1562 58.5328 29.7547 54.9193 27.5646 51.6291C27.4568 51.4646 27.3433 51.4078 27.1504 51.4078C21.4479 51.4135 15.7455 51.4135 10.0431 51.4135C9.95797 51.4135 9.87853 51.4248 9.78207 51.4362C14.5823 59.7752 24.5857 66.9569 37.3523 66.4237C48.8877 65.9301 57.9151 59.0377 62.2274 51.4135ZM29.1306 51.4022C29.21 51.561 29.2554 51.6688 29.3122 51.7709C30.9576 54.8569 32.0584 58.1244 32.6485 61.5678C32.762 62.2428 32.8528 62.9236 32.9946 63.5929C33.0968 64.0978 33.284 64.2226 33.7947 64.2453C34.0273 64.2567 34.2599 64.268 34.4926 64.268C35.7863 64.2737 37.0743 64.2794 38.368 64.2737C38.8446 64.268 38.9921 64.1319 39.0772 63.6553C39.1737 63.0994 39.2418 62.5378 39.3326 61.9819C39.9227 58.3853 41.0348 54.959 42.7597 51.7425C42.8108 51.6404 42.8561 51.5383 42.9186 51.4022C42.4192 51.4022 41.9653 51.4305 41.5114 51.3965C41.1539 51.3681 40.978 51.4759 40.9043 51.8333C40.8816 51.9467 40.7397 52.1169 40.6376 52.1226C39.2191 52.2304 37.8006 52.3892 36.382 52.3779C34.7933 52.3665 33.2046 52.1737 31.6158 52.0886C31.2981 52.0715 31.1335 51.9694 31.0825 51.6631C31.0598 51.527 31.0314 51.3965 30.8271 51.4022C30.2824 51.4135 29.7377 51.4022 29.1306 51.4022Z" fill="white"/>
<path d="M45.4549 41.3613C46.0279 41.3613 46.5726 41.3613 47.1174 41.3613C48.9331 41.3613 50.7488 41.3557 52.5645 41.367C52.9446 41.367 53.3304 41.4124 53.7049 41.4748C54.295 41.5769 54.6809 41.9456 54.749 42.5356C54.8114 43.0518 54.8 43.5794 54.7603 44.0956C54.7206 44.6005 54.4085 44.9409 53.8695 45.1224C54.0057 45.1734 54.0738 45.2018 54.1475 45.2245C54.6582 45.3493 54.9759 45.6897 55.027 46.1832C55.0837 46.7505 55.0894 47.3291 55.027 47.8907C54.9646 48.4466 54.5844 48.8154 54.0227 48.9232C53.6879 48.9912 53.3475 49.0309 53.007 49.0366C50.5672 49.0536 48.1273 49.0536 45.6875 49.065C45.6194 49.065 45.5513 49.0536 45.4605 49.0423C45.4549 46.4895 45.4549 43.9425 45.4549 41.3613ZM47.6848 47.227C48.1727 47.227 48.6437 47.227 49.1146 47.227C50.1416 47.2213 51.1743 47.2213 52.2013 47.2043C52.6552 47.1986 52.8482 46.9717 52.8425 46.5406C52.8368 46.1208 52.6609 45.962 52.1786 45.9563C50.7885 45.9506 49.3927 45.9449 48.0025 45.9449C47.8947 45.9449 47.7926 45.9563 47.6791 45.962C47.6848 46.3931 47.6848 46.7902 47.6848 47.227ZM47.6848 44.3736C47.7642 44.3793 47.8323 44.3906 47.9004 44.3906C49.1487 44.3906 50.397 44.3906 51.6509 44.3906C51.8212 44.3906 52.0027 44.3963 52.1559 44.3339C52.2864 44.2828 52.4453 44.1694 52.4964 44.0446C52.695 43.551 52.4396 43.188 51.8949 43.188C50.5558 43.1766 49.2168 43.1823 47.872 43.1766C47.8039 43.1766 47.7415 43.1936 47.6621 43.2107C47.6621 43.5567 47.6621 43.8914 47.6621 44.2204C47.6677 44.2601 47.6791 44.3112 47.6848 44.3736Z" fill="white"/>
<path d="M15.2065 43.7666C14.4575 43.7666 13.7255 43.7666 12.9936 43.7666C12.9822 43.7496 12.9652 43.7326 12.9595 43.7155C12.8404 43.1369 12.7553 43.0462 12.1595 43.0405C11.1325 43.0291 10.0998 43.0348 9.07282 43.0575C8.60187 43.0688 8.43165 43.2163 8.41463 43.5567C8.39193 43.9425 8.54513 44.124 8.93096 44.1467C9.95797 44.1977 10.985 44.2261 12.012 44.2828C12.6872 44.3225 13.3624 44.3452 14.0263 44.453C14.9511 44.6005 15.3483 45.0316 15.4391 45.962C15.4902 46.5009 15.4845 47.0511 15.4164 47.59C15.2973 48.5431 14.7809 49.0139 13.7085 49.0933C11.7169 49.2408 9.71966 49.2692 7.72806 49.0536C7.64863 49.0423 7.56919 49.0253 7.48975 49.0082C6.51949 48.7927 6.15635 48.3899 6.07124 47.3972C6.04854 47.1192 6.06557 46.8356 6.06557 46.5292C6.81454 46.5292 7.55217 46.5292 8.29547 46.5292C8.30682 46.5463 8.32384 46.5576 8.32951 46.5746C8.43165 47.278 8.52811 47.3745 9.23169 47.3858C10.253 47.4028 11.2687 47.4028 12.29 47.4028C12.3921 47.4028 12.4943 47.3972 12.5907 47.3802C13.1014 47.3178 13.2262 47.1646 13.2035 46.6484C13.1922 46.3761 13.0617 46.2059 12.7893 46.1889C12.1935 46.1492 11.6034 46.1265 11.0077 46.0981C9.99769 46.0471 8.99338 46.0017 7.9834 45.9506C7.79048 45.9393 7.60323 45.9109 7.41599 45.8712C6.70673 45.7294 6.28118 45.2699 6.20742 44.5778C6.145 43.9935 6.13365 43.3865 6.21877 42.8079C6.34927 41.9116 6.85426 41.4691 7.76211 41.367C8.40328 41.2933 9.05012 41.2479 9.69129 41.2536C10.9623 41.2649 12.2333 41.316 13.4986 41.3613C13.6348 41.367 13.7766 41.4067 13.9128 41.4464C14.815 41.6904 15.1611 42.1215 15.2008 43.0632C15.2121 43.2901 15.2065 43.517 15.2065 43.7666Z" fill="white"/>
<path d="M36.2062 47.2156C36.2062 47.8567 36.2062 48.4353 36.2062 49.0423C33.3521 49.0423 30.5151 49.0423 27.6553 49.0423C27.6553 46.4895 27.6553 43.9425 27.6553 41.3784C30.4867 41.3784 33.3067 41.3784 36.1551 41.3784C36.1551 41.9627 36.1551 42.5413 36.1551 43.1539C34.1068 43.1539 32.0584 43.1539 29.9874 43.1539C29.9874 43.5397 29.9874 43.8857 29.9874 44.2658C31.9336 44.2658 33.8741 44.2658 35.8373 44.2658C35.8373 44.8388 35.8373 45.3777 35.8373 45.9506C33.8911 45.9506 31.9506 45.9506 29.9874 45.9506C29.9874 46.3817 29.9874 46.7788 29.9874 47.21C32.0527 47.2156 34.1181 47.2156 36.2062 47.2156Z" fill="white"/>
<path d="M24.1034 46.308C22.3217 46.308 20.5685 46.308 18.7868 46.308C18.7868 47.2213 18.7868 48.1233 18.7868 49.048C17.9527 49.048 17.1527 49.048 16.3299 49.048C16.3299 46.4952 16.3299 43.9481 16.3299 41.384C17.1413 41.384 17.9414 41.384 18.7698 41.384C18.7698 42.286 18.7698 43.1766 18.7698 44.0956C20.5571 44.0956 22.3104 44.0956 24.0977 44.0956C24.0977 43.1823 24.0977 42.2917 24.0977 41.3784C24.9205 41.3784 25.7091 41.3784 26.5205 41.3784C26.5262 41.4748 26.5432 41.5599 26.5432 41.6507C26.5432 43.9992 26.5376 46.3477 26.5489 48.7019C26.5489 48.9856 26.4808 49.0877 26.1858 49.0763C25.5049 49.0536 24.8183 49.0706 24.1034 49.0706C24.1034 48.1346 24.1034 47.2327 24.1034 46.308Z" fill="white"/>
<path d="M61.8529 49.048C61.0301 49.048 60.2471 49.048 59.4244 49.048C59.4244 48.6111 59.4244 48.1914 59.4244 47.7659C59.4187 47.2951 59.5322 46.7732 59.3733 46.3591C59.2144 45.9449 58.7832 45.6329 58.4711 45.2756C57.3874 44.0502 56.3037 42.8306 55.2199 41.6053C55.1688 41.5429 55.1178 41.4805 55.0383 41.384C55.1405 41.3727 55.2142 41.3557 55.2823 41.3557C56.1391 41.3557 56.9959 41.3613 57.8527 41.35C58.0286 41.35 58.142 41.4011 58.2555 41.5429C59.0215 42.5016 59.7989 43.4546 60.5989 44.436C60.7408 44.2545 60.8713 44.09 61.0018 43.9254C61.6202 43.1312 62.2387 42.3314 62.8629 41.5372C62.9253 41.4578 63.0274 41.3613 63.1125 41.3613C64.0771 41.35 65.0417 41.3557 66.0744 41.3557C65.5921 41.9229 65.1552 42.4448 64.7126 42.9667C63.8331 44.0049 62.9536 45.0486 62.0685 46.0811C61.9153 46.2626 61.8415 46.4385 61.8472 46.6767C61.8642 47.4596 61.8529 48.2311 61.8529 49.048Z" fill="white"/>
<path d="M36.9721 49.048C36.9721 46.4782 36.9721 43.9425 36.9721 41.384C37.7892 41.384 38.5893 41.384 39.4233 41.384C39.4233 43.2787 39.4233 45.1678 39.4233 47.1022C41.2674 47.1022 43.0718 47.1022 44.8988 47.1022C44.8988 47.7716 44.8988 48.4013 44.8988 49.0536C42.2604 49.048 39.6276 49.048 36.9721 49.048Z" fill="white"/>
<path d="M45.3073 30.7419C45.3641 31.6439 45.4151 32.5572 45.4776 33.4705C45.4889 33.6577 45.3811 33.6974 45.2506 33.7258C44.1725 33.9697 43.1001 34.2704 42.0107 34.4406C39.6219 34.8093 37.2105 34.8717 34.799 34.7979C32.3478 34.7242 29.9079 34.5597 27.5135 33.9754C27.2582 33.913 27.0085 33.8392 26.7645 33.7485C26.6908 33.7201 26.5886 33.618 26.5886 33.5556C26.6227 32.6536 26.6737 31.746 26.7248 30.827C32.9436 32.1601 39.0999 32.2962 45.3073 30.7419Z" fill="white"/>
<path d="M26.7986 30.2427C26.9745 29.3351 27.1447 28.4501 27.3036 27.6219C33.1422 28.7735 38.8957 28.8529 44.7116 27.4063C44.8648 28.2459 45.0236 29.1138 45.1882 29.9761C45.2222 30.169 45.0917 30.1973 44.9612 30.2257C43.8832 30.4639 42.8107 30.7533 41.7213 30.9348C39.202 31.3432 36.6601 31.3943 34.1181 31.2865C31.769 31.1901 29.437 30.9234 27.1504 30.3391C27.0539 30.3165 26.9574 30.2881 26.7986 30.2427Z" fill="white"/>
<path d="M45.4265 34.3158C45.4265 35.0419 45.4322 35.8247 45.4151 36.6076C45.4151 36.6926 45.2676 36.8174 45.1712 36.8401C44.2066 37.0784 43.242 37.362 42.2604 37.5209C38.7368 38.0768 35.1905 38.0995 31.6385 37.7932C30.0385 37.657 28.4554 37.4358 26.9007 37.0103C26.7078 36.9593 26.6113 36.8799 26.6113 36.67C26.617 35.8871 26.617 35.0986 26.617 34.3555C32.8812 35.6489 39.168 35.7623 45.4265 34.3158Z" fill="white"/>
<path d="M29.0455 23.8325C30.3222 21.9321 31.4399 20.0487 31.979 17.825C32.257 18.2902 32.484 18.7213 32.7677 19.1184C33.1819 19.697 33.6074 20.2756 34.0841 20.8089C34.2599 21.0074 34.572 21.1663 34.8387 21.1833C35.6104 21.24 36.3877 21.2173 37.1594 21.2287C37.6076 21.2343 37.9254 21.0018 38.1637 20.6557C38.7368 19.8048 39.3042 18.9425 39.8716 18.0859C39.9283 18.0065 39.9737 17.9214 40.0645 17.7796C40.5752 19.9239 41.6249 21.7449 42.8391 23.5772C38.2431 24.7968 33.6812 24.6834 29.0455 23.8325Z" fill="white"/>
<path d="M44.4903 26.8163C40.7397 28.314 31.0428 28.2459 27.4511 26.9979C27.7518 26.3058 28.0242 25.608 28.3533 24.933C28.6767 24.2693 28.6994 24.2863 29.403 24.4168C32.5407 25.0181 35.7012 25.1542 38.8843 24.8422C40.2518 24.7118 41.5965 24.4792 42.9129 24.0821C43.0037 24.0537 43.1739 24.0821 43.2193 24.1445C43.798 24.9557 44.1839 25.8577 44.4903 26.8163Z" fill="white"/>
<path d="M35.8146 20.8146C35.1224 20.9734 34.5493 20.582 34.0273 19.975C32.9152 18.6816 32.1038 17.2407 31.7804 15.5616C31.7236 15.2552 31.752 14.9205 31.8031 14.6085C31.8541 14.2738 32.1038 14.115 32.4272 14.2171C32.8585 14.3533 33.2954 14.5008 33.6755 14.7277C35.3891 15.7544 37.0346 15.6807 38.6517 14.5291C38.8503 14.3873 39.0602 14.2738 39.2758 14.1661C39.8319 13.8994 40.2915 14.1717 40.2631 14.7901C40.2404 15.2609 40.1666 15.7317 40.0475 16.1856C39.5992 17.859 38.6971 19.2716 37.5282 20.5366C37.3183 20.7635 37.0686 20.8089 36.7963 20.8146C36.5182 20.8202 36.2345 20.8146 35.8146 20.8146ZM33.9592 17.5584C33.9422 17.5584 33.9252 17.5584 33.9082 17.5584C33.7493 16.855 33.5677 16.1515 33.4429 15.4368C33.3805 15.0737 33.2329 14.8411 32.8812 14.7617C32.6542 14.7106 32.4272 14.6709 32.1946 14.6256C32.1662 14.8695 32.0811 15.1304 32.1265 15.3573C32.4896 17.2918 33.4259 18.9198 34.8614 20.2586C34.9465 20.338 35.0884 20.4004 35.2075 20.4061C35.7636 20.4231 36.314 20.4288 36.87 20.4175C37.0062 20.4118 37.1707 20.3494 37.2615 20.2529C38.4134 19.0446 39.2701 17.6548 39.7127 16.0381C39.8149 15.6637 39.8716 15.2666 39.9056 14.8752C39.9397 14.4724 39.7524 14.3589 39.4006 14.5348C39.2758 14.5972 39.1567 14.6766 39.0318 14.739C38.7708 14.8695 38.6403 15.0737 38.5836 15.3687C38.4361 16.1288 38.2602 16.8776 38.0899 17.6321C38.0729 17.6321 38.0559 17.6321 38.0445 17.6321C37.9084 16.94 37.7779 16.248 37.636 15.5275C36.5126 15.953 35.4402 15.9303 34.3621 15.4935C34.2146 16.1969 34.0897 16.8776 33.9592 17.5584Z" fill="white"/>
<path d="M40.6319 52.6502C40.473 53.1777 40.3482 53.6429 40.178 54.091C40.1383 54.1932 39.934 54.2783 39.8035 54.2896C38.8276 54.3577 37.8516 54.4428 36.8757 54.4484C35.4572 54.4541 34.033 54.4087 32.6145 54.369C31.9336 54.352 31.9336 54.335 31.735 53.6769C31.6272 53.3309 31.5251 52.9905 31.4002 52.5878C34.4869 52.9168 37.5282 53.0926 40.6319 52.6502Z" fill="white"/>
<path d="M32.0925 54.8625C34.7309 55.0724 37.3353 55.0271 39.9737 54.8172C39.8659 55.2313 39.7695 55.617 39.6503 55.9971C39.6276 56.0708 39.4914 56.1389 39.4006 56.1503C38.6063 56.2297 37.8119 56.3545 37.0232 56.3488C35.6047 56.3375 34.1805 56.241 32.762 56.1843C32.5294 56.173 32.3989 56.0992 32.3535 55.8496C32.2911 55.5319 32.1889 55.2199 32.0925 54.8625Z" fill="white"/>
<path d="M32.5804 56.6835C34.8841 56.8821 37.1651 56.9955 39.4744 56.6778C39.3723 57.1487 39.2815 57.5968 39.168 58.0393C39.151 58.1074 39.0035 58.1811 38.9183 58.1811C37.5793 58.2152 36.2402 58.2492 34.9068 58.2549C34.3224 58.2549 33.7436 58.1754 33.1592 58.1584C32.9379 58.1528 32.8755 58.045 32.8358 57.8521C32.7563 57.472 32.6655 57.0976 32.5804 56.6835Z" fill="white"/>
<path d="M39.0035 58.7257C39.0148 58.7768 39.0205 58.7881 39.0148 58.7938C38.8162 59.8716 39.1056 59.7241 38.0275 59.7525C36.4785 59.7979 34.9238 59.7298 33.3748 59.7014C33.301 59.7014 33.1762 59.5993 33.1592 59.5256C33.0911 59.2646 33.0627 58.9923 33.0117 58.6803C35.0089 58.8108 37.0005 58.9299 39.0035 58.7257Z" fill="white"/>
<path d="M33.3918 61.182C33.3464 60.87 33.3067 60.575 33.2727 60.2971C35.1054 60.2971 36.9211 60.2971 38.7708 60.2971C38.7425 60.541 38.7254 60.8133 38.6687 61.0742C38.6573 61.131 38.5212 61.2047 38.4417 61.2104C37.1651 61.2331 35.8827 61.2501 34.6061 61.2558C34.2089 61.2501 33.806 61.2047 33.3918 61.182Z" fill="white"/>
<path d="M38.5666 61.772C38.5666 61.8968 38.5609 62.0386 38.5666 62.1748C38.5779 62.3846 38.4701 62.4641 38.2772 62.4697C37.897 62.4868 37.5112 62.5265 37.131 62.5265C35.9792 62.5208 34.833 62.4981 33.6812 62.4811C33.6301 62.4811 33.5847 62.4697 33.511 62.4641C33.4883 62.2201 33.4656 61.9876 33.4429 61.772C35.1621 61.772 36.8587 61.772 38.5666 61.772Z" fill="white"/>
<path d="M33.5904 63.0143C35.2132 63.0143 36.8303 63.0143 38.4474 63.0143C38.4587 63.3717 38.3963 63.4795 38.0389 63.5135C37.4601 63.5646 36.8814 63.5873 36.2969 63.61C35.8827 63.627 35.4742 63.644 35.06 63.627C34.6798 63.61 34.2997 63.5589 33.9252 63.5079C33.6642 63.4738 33.5904 63.2866 33.5904 63.0143Z" fill="white"/>
<path d="M37.0119 17.5754C37.2161 18.1767 37.2899 18.795 37.2729 19.4304C37.2672 19.5382 37.1083 19.714 37.0062 19.7254C36.9097 19.7311 36.7509 19.5892 36.6998 19.4701C36.6487 19.3453 36.6714 19.1751 36.6884 19.0333C36.7622 18.5511 36.8473 18.0633 36.9268 17.5811C36.9551 17.5811 36.9835 17.5754 37.0119 17.5754Z" fill="white"/>
<path d="M35.1167 17.5867C35.1791 18.1937 35.2586 18.8007 35.2926 19.4077C35.2983 19.5155 35.1338 19.7084 35.0203 19.7254C34.8047 19.7594 34.6855 19.5665 34.7025 19.3737C34.7593 18.778 34.8501 18.1881 34.9295 17.5924C34.9919 17.5924 35.0543 17.5924 35.1167 17.5867Z" fill="white"/>
</g>
</svg>
